<svg width="232" height="190" viewBox="0 0 232 190" fill="none" xmlns="http://www.w3.org/2000/svg">
<path d="M20.8179 184.655C20.8179 184.94 21.0485 185.17 21.3326 185.17H88.908C89.1921 185.17 89.4227 184.94 89.4227 184.655C89.4227 184.371 89.1921 184.141 88.908 184.141H21.3326C21.0485 184.141 20.8179 184.371 20.8179 184.655Z" stroke="#801424" stroke-width="9" stroke-miterlimit="10"/>
<path d="M54.4185 153.666V180.434" stroke="#801424" stroke-width="9" stroke-miterlimit="10"/>
<path d="M81.5986 31.9741C81.5986 17.0767 69.5219 5 54.6245 5C39.7271 5 27.6504 17.0767 27.6504 31.9741V97.4533C27.6504 112.351 39.7271 124.427 54.6245 124.427C69.5219 124.427 81.5986 112.351 81.5986 97.4533V31.9741Z" stroke="#801424" stroke-width="9" stroke-miterlimit="10" stroke-linecap="round"/>
<path d="M103.968 73.8125V99.3782C103.968 126.406 82.0595 148.315 55.0319 148.315H53.9364C26.9088 148.315 5 126.406 5 99.3782V74.249" stroke="#801424" stroke-width="9" stroke-miterlimit="10" stroke-linecap="round"/>
<path d="M144.08 184.679C144.08 184.963 144.311 185.194 144.595 185.194H212.17C212.454 185.194 212.685 184.963 212.685 184.679C212.685 184.395 212.454 184.164 212.17 184.164H144.595C144.311 184.164 144.08 184.395 144.08 184.679Z" stroke="#801424" stroke-width="9" stroke-miterlimit="10"/>
<path d="M177.68 153.691V180.46" stroke="#801424" stroke-width="9" stroke-miterlimit="10"/>
<path d="M227.23 73.8359V99.4016C227.23 126.429 205.321 148.338 178.294 148.338H177.198C150.17 148.338 128.262 126.429 128.262 99.4016V74.2725" stroke="#801424" stroke-width="9" stroke-miterlimit="10" stroke-linecap="round"/>
<path d="M216.852 73.8655C217 73.8244 217.066 73.8202 217.086 73.9479C216.971 79.2563 216.848 89.5352 216.728 95.103C217.815 157.102 127.565 152.914 138.841 80.397C139.15 79.0256 140.867 79.8946 141.843 79.9811C146.534 80.9406 152.917 82.5755 156.932 81.6901C162.331 80.3929 169.385 78.7456 174.377 77.6625C176.395 77.193 178.684 76.8224 180.702 76.8965C193.3 77.6131 201.108 87.2867 212.799 76.1182C214.014 75.2287 215.452 74.4792 216.823 73.8697L216.856 73.8573L216.852 73.8655Z" fill="#801424" stroke="#F9F5E7" stroke-width="5" stroke-miterlimit="10" stroke-linecap="round"/>
</svg>
