<svg width="189" height="182" viewBox="0 0 189 182" fill="none" xmlns="http://www.w3.org/2000/svg">
<path d="M167.803 80.3908C168.622 76.4541 167.397 73.1182 166.504 69.1987C166.276 68.1859 166.047 67.1731 165.812 66.1546C165.143 63.2078 164.45 60.2037 162.831 57.6231C162.282 56.7477 161.629 55.9237 161.172 54.9967C160.834 54.3101 160.617 53.5834 160.399 52.8567C159.037 48.3192 157.492 44.3997 156.125 39.8622L156.159 39.0897C155.896 32.7612 155.627 26.4327 155.364 20.0985C155.238 17.146 155.118 14.1705 155.576 11.2523C155.879 9.34121 156.411 7.29847 155.564 5.54182C154.815 3.99117 153.104 3.0356 151.358 2.70945C149.613 2.3833 147.817 2.58357 146.048 2.78956C144.79 2.93833 143.416 3.13288 142.552 4.0255C141.185 5.43311 141.791 7.67039 142.232 9.55292C143.411 14.5768 142.73 19.8067 142.718 24.9622C142.713 27.9662 142.93 30.9702 142.73 33.9685C142.266 40.9036 139.989 47.8786 137.305 54.3387L136.928 55.0597C135.663 58.7675 134.347 61.022 133.083 64.7298C132.533 66.3434 131.978 67.9627 131.623 69.6278C131.137 71.8823 131.011 74.1939 130.885 76.4999C130.513 83.3147 130.897 90.4901 130.531 97.2992V97.7513C130.725 103.382 130.061 108.36 130.256 113.99C130.359 116.908 130.468 119.872 131.412 122.648C132.356 125.423 134.261 128.032 137.048 129.188C138.267 129.697 139.6 129.903 140.922 130.035C143.645 130.309 146.392 130.281 149.127 130.258C153.218 130.218 157.338 130.178 161.366 129.485C162.797 129.239 164.296 128.867 165.309 127.866C166.653 126.538 166.773 124.49 166.813 122.642C167.122 108.806 167.437 94.9704 167.746 81.1347L167.798 80.3794L167.803 80.3908Z" fill="#801424"/>
<path d="M170.287 81.0739C170.83 78.3045 170.63 75.6094 170.035 72.8629C169.491 70.3509 168.845 67.8562 168.273 65.3499C167.701 62.8437 167.071 60.4291 166.013 58.1059C165.492 56.973 164.811 55.9602 164.124 54.9245C163.958 54.6728 163.792 54.421 163.644 54.1578C163.558 54.009 163.478 53.8545 163.403 53.7C163.403 53.6886 163.237 53.3109 163.329 53.5455C163.42 53.7801 163.277 53.391 163.272 53.3796C163.22 53.2194 163.163 53.0592 163.111 52.8989C163.003 52.5671 162.911 52.2352 162.808 51.909C162.07 49.4829 161.235 47.0854 160.411 44.6822C159.993 43.4634 159.581 42.2447 159.186 41.0144C159.089 40.7112 158.992 40.4079 158.9 40.1046C158.86 39.973 158.826 39.8357 158.78 39.7098C158.551 39.1262 158.78 39.664 158.711 39.8357C158.786 39.6526 158.74 39.3036 158.74 39.1033C158.74 36.4597 158.517 33.7933 158.408 31.1555C158.294 28.4147 158.179 25.6738 158.065 22.9388C157.956 20.2895 157.779 17.6288 157.847 14.9795C157.864 14.3329 157.893 13.6863 157.95 13.0455C157.979 12.725 158.008 12.4046 158.048 12.0842C158.002 12.3875 158.042 12.1471 158.048 12.0842C158.076 11.8782 158.111 11.6722 158.145 11.4662C158.362 10.1673 158.648 8.83412 158.597 7.50662C158.488 4.74863 157 2.31108 154.488 1.0923C151.977 -0.126479 149.293 -0.137923 146.581 0.165341C144.017 0.451439 141.099 0.886309 139.817 3.47836C138.633 5.86442 139.36 8.32486 139.869 10.7796C139.932 11.0886 139.989 11.3976 140.041 11.7123C140.052 11.7638 140.138 12.3131 140.098 12.0384C140.063 11.7924 140.121 12.233 140.121 12.233C140.201 12.9024 140.258 13.5776 140.292 14.2471C140.361 15.5574 140.361 16.8678 140.332 18.1781C140.275 20.7759 140.121 23.3679 140.149 25.9657C140.178 28.5634 140.338 31.4015 140.149 34.1195C140.109 34.6917 140.058 35.2639 139.995 35.8303C139.978 36.0077 139.955 36.1794 139.932 36.3568C139.932 36.3568 139.875 36.7916 139.909 36.5399C139.949 36.2595 139.869 36.7973 139.863 36.8546C139.835 37.0319 139.812 37.2036 139.783 37.381C139.577 38.657 139.32 39.9273 139.022 41.1861C138.421 43.7209 137.649 46.2157 136.773 48.6704C136.35 49.8491 135.904 51.0221 135.44 52.1837C135.326 52.4698 135.205 52.7616 135.091 53.0477L135.04 53.1736C134.914 53.4769 134.902 53.4998 135.011 53.248C135.011 53.0649 135.125 53.0191 135.051 53.1393C134.868 53.4254 134.725 53.7687 134.593 54.0777C134.324 54.7128 134.118 55.3708 133.872 56.0117C133.769 56.2864 133.661 56.5553 133.552 56.8242C133.506 56.9387 133.46 57.0474 133.415 57.1618C133.346 57.3277 133.209 57.6596 133.352 57.3163C132.871 58.455 132.373 59.5822 131.892 60.7209C130.914 63.0497 130.044 65.4587 129.403 67.9077C128.705 70.5798 128.499 73.3492 128.345 76.0958C128.19 78.8423 128.156 81.3714 128.145 84.015C128.133 86.6585 128.156 89.2506 128.127 91.8712C128.099 94.2115 127.956 96.5461 127.996 98.8864C128.076 104.019 127.521 109.14 127.698 114.273C127.876 119.405 128.425 124.687 132.001 128.681C135.686 132.8 141.46 132.858 146.586 132.863C151.977 132.869 157.561 132.978 162.854 131.833C165.652 131.227 167.878 129.625 168.839 126.867C169.635 124.589 169.417 121.906 169.469 119.531C169.715 108.631 169.961 97.7362 170.207 86.8359C170.252 84.6902 170.241 82.5387 170.384 80.3987C170.476 79.054 169.137 77.7666 167.809 77.8238C166.339 77.8925 165.332 78.9568 165.234 80.3987C165.091 82.4929 165.108 84.5986 165.057 86.6929C165 89.2963 164.943 91.9056 164.88 94.509C164.765 99.7218 164.645 104.934 164.531 110.147C164.473 112.751 164.416 115.36 164.353 117.963C164.325 119.291 164.296 120.618 164.262 121.946C164.25 122.472 164.244 122.999 164.216 123.519C164.204 123.737 164.187 123.954 164.17 124.172C164.136 124.664 164.17 124.24 164.187 124.137C164.164 124.28 164.141 124.423 164.113 124.567C164.067 124.813 164.004 125.053 163.93 125.293C163.901 125.396 163.861 125.493 163.827 125.596C163.838 125.556 164.027 125.225 163.878 125.465C163.747 125.677 163.649 125.894 163.501 126.094C163.873 125.585 163.009 126.426 163.495 126.089C163.312 126.22 163.117 126.323 162.923 126.438C162.831 126.489 162.482 126.615 162.923 126.455C162.814 126.495 162.705 126.535 162.597 126.569C162.082 126.741 161.555 126.861 161.023 126.958C160.725 127.016 160.428 127.061 160.13 127.113C160.039 127.13 159.381 127.227 159.713 127.181C159.02 127.273 158.328 127.347 157.636 127.405C156.382 127.513 155.129 127.582 153.876 127.622C151.307 127.708 148.726 127.731 146.152 127.719C144.83 127.714 143.508 127.679 142.192 127.588C141.591 127.548 140.99 127.49 140.395 127.422C140.773 127.468 140.132 127.382 140.023 127.359C139.674 127.296 139.325 127.227 138.988 127.136C138.69 127.056 138.398 126.941 138.107 126.861C137.815 126.781 138.089 126.861 138.152 126.895C138.055 126.855 137.958 126.804 137.86 126.758C137.386 126.523 136.934 126.243 136.51 125.923C136.865 126.192 136.522 125.917 136.378 125.785C136.195 125.619 136.018 125.448 135.852 125.27C135.709 125.116 135.566 124.961 135.429 124.795C135.377 124.738 135.108 124.378 135.303 124.641C135.497 124.904 135.223 124.515 135.194 124.475C134.931 124.097 134.696 123.703 134.479 123.296C134.364 123.079 134.267 122.85 134.147 122.632C134.01 122.375 134.181 122.73 134.193 122.764C134.124 122.604 134.061 122.438 134.004 122.272C133.603 121.173 133.346 120.035 133.163 118.885C133.163 118.885 133.1 118.45 133.134 118.702C133.174 118.988 133.106 118.444 133.1 118.387C133.071 118.124 133.048 117.86 133.025 117.591C132.968 116.928 132.934 116.264 132.9 115.6C132.842 114.376 132.802 113.151 132.802 111.921C132.802 109.466 132.934 107.012 133.037 104.557C133.14 102.102 133.111 99.882 133.117 97.536C133.123 95.19 133.277 92.844 133.289 90.4922C133.317 85.4569 133.237 80.4273 133.535 75.3977C133.569 74.7969 133.609 74.2018 133.661 73.601C133.689 73.2806 133.718 72.9601 133.752 72.634C133.769 72.4967 133.781 72.3593 133.798 72.222C133.804 72.1591 133.884 71.5812 133.832 71.9474C134.01 70.7343 134.284 69.5384 134.628 68.3597C134.971 67.181 135.389 65.9507 135.812 64.7663C136.001 64.2399 136.195 63.7192 136.407 63.1985C136.499 62.9696 136.59 62.7464 136.682 62.5233C136.876 62.0541 136.739 62.3802 136.699 62.4775C136.762 62.3345 136.819 62.1914 136.882 62.0484C137.368 60.9097 137.866 59.7767 138.341 58.6324C138.547 58.1345 138.747 57.6367 138.936 57.1332C139.045 56.8471 139.159 56.5553 139.257 56.2635C139.457 55.6398 139.079 56.5267 139.251 56.2177C140.315 54.2951 141.013 52.0864 141.751 50.0265C143.457 45.2544 144.721 40.3392 145.219 35.2867C145.471 32.7405 145.413 30.1942 145.351 27.6365C145.288 25.0788 145.356 22.5897 145.448 20.0663C145.539 17.5429 145.597 15.0939 145.339 12.6163C145.196 11.2488 144.984 9.8984 144.67 8.55946C144.561 8.10743 144.464 7.64967 144.372 7.19191C144.269 6.68838 144.384 7.53523 144.343 7.02597C144.321 6.7456 144.321 6.47094 144.315 6.19629C144.303 5.76142 144.349 6.30501 144.286 6.28212C144.275 6.28212 144.343 6.01319 144.349 5.99602C144.372 5.89875 144.406 5.81292 144.435 5.71564C144.424 5.74998 144.229 6.12763 144.384 5.8873C144.572 5.58404 144.057 6.16768 144.332 5.92164C144.406 5.85869 144.487 5.77286 144.549 5.7042C144.504 5.74998 144.2 5.90447 144.441 5.80147C144.681 5.69848 144.795 5.61837 144.469 5.74426C144.898 5.57832 145.351 5.47532 145.808 5.40094C145.917 5.38377 146.02 5.36661 146.129 5.34944C146.037 5.36088 145.591 5.41238 146.083 5.36088C146.392 5.32655 146.701 5.2865 147.01 5.25789C147.588 5.19495 148.166 5.14345 148.744 5.12056C149.053 5.10912 149.367 5.10339 149.676 5.10912C149.808 5.10912 149.94 5.11484 150.077 5.12628C150.134 5.12628 150.792 5.18922 150.529 5.15489C150.266 5.12056 150.706 5.18922 150.712 5.18922C150.815 5.21211 150.924 5.22928 151.027 5.25789C151.273 5.31511 151.507 5.38949 151.748 5.46388C152.211 5.60693 151.496 5.30939 151.925 5.52682C152.177 5.65843 152.417 5.79575 152.663 5.94452C152.783 6.01891 152.978 6.24779 152.646 5.91591C152.72 5.9903 152.801 6.05324 152.875 6.1219C152.949 6.19057 153.315 6.63688 153.15 6.39656C152.955 6.1219 153.195 6.48811 153.235 6.55677C153.287 6.64832 153.338 6.73415 153.384 6.82571C153.35 6.75132 153.304 6.511 153.344 6.76849C153.373 6.95731 153.441 7.15186 153.487 7.34068C153.384 6.91726 153.487 7.41507 153.487 7.59817C153.493 7.87855 153.481 8.15892 153.459 8.4393C153.447 8.55946 153.436 8.67962 153.424 8.8055C153.436 8.69679 153.499 8.33058 153.418 8.85128C153.373 9.13738 153.327 9.41775 153.275 9.70385C152.823 12.3245 152.669 14.928 152.738 17.583C152.869 22.7614 153.161 27.9397 153.378 33.1124C153.47 35.3039 153.602 37.4954 153.602 39.6869C153.602 40.8771 154.18 42.1302 154.551 43.2574C154.923 44.3847 155.307 45.5176 155.696 46.6448C156.491 48.968 157.287 51.2854 157.996 53.6371C158.379 54.9131 158.849 56.1547 159.57 57.282C160.193 58.2547 160.868 59.1817 161.383 60.2231C161.458 60.3718 161.527 60.5263 161.601 60.6751C161.601 60.6865 161.773 61.0642 161.67 60.8296C161.567 60.595 161.727 60.9784 161.733 60.9898C161.778 61.11 161.824 61.2244 161.864 61.3446C162.082 61.9339 162.276 62.5347 162.453 63.1413C162.768 64.2342 163.031 65.3442 163.283 66.4486C163.838 68.8747 164.433 71.2893 164.988 73.7097C165.108 74.2476 165.223 74.7797 165.32 75.3233C165.349 75.4893 165.372 75.6552 165.406 75.8211C165.463 76.1187 165.406 75.8097 165.406 75.7582C165.446 76.05 165.469 76.3418 165.492 76.6279C165.532 77.1772 165.543 77.7208 165.52 78.2701C165.509 78.5276 165.492 78.7851 165.463 79.0426C165.412 79.5747 165.435 79.26 165.452 79.1456C165.423 79.323 165.389 79.5003 165.355 79.6777C165.097 80.9938 165.726 82.5215 167.151 82.8477C168.427 83.1395 170.041 82.4643 170.321 81.051L170.287 81.0739Z" fill="#801424"/>
<path d="M164.811 85.4764C165.097 83.8285 165.326 81.9517 164.216 80.6642C163.301 79.6057 161.756 79.2967 160.331 79.1879C154.632 78.7588 148.904 80.3953 143.228 79.7888C141.666 79.6228 140.11 79.2852 138.542 79.3939C136.974 79.5027 135.337 80.155 134.576 81.4767C134.199 82.129 134.073 82.8843 133.981 83.6225C133.123 90.6548 135.16 97.7443 134.834 104.822C134.765 106.362 134.582 107.918 134.811 109.446C135.04 110.973 135.749 112.518 137.088 113.371C139.28 114.767 142.169 113.892 144.784 113.6C149.951 113.022 155.164 114.985 160.331 114.372C161.99 114.178 163.833 113.525 164.405 112.015C164.611 111.466 164.622 110.865 164.622 110.275C164.685 101.984 164.754 93.6931 164.817 85.3963V85.4821L164.811 85.4764Z" fill="#801424"/>
<path d="M167.294 86.1647C167.672 83.9445 167.935 81.507 166.579 79.5386C165.137 77.4444 162.74 76.8093 160.331 76.6204C155.788 76.2657 151.279 77.2384 146.747 77.3471C145.66 77.37 144.578 77.3471 143.497 77.2498C142.415 77.1526 141.265 76.9122 139.92 76.8321C137.677 76.6948 135.423 77.1926 133.666 78.6403C131.675 80.2768 131.412 82.8516 131.257 85.2549C131.114 87.515 131.229 89.7867 131.423 92.0411C131.818 96.5786 132.488 101.082 132.213 105.648C132.076 107.965 132.076 110.231 133.031 112.394C133.987 114.557 135.818 116.062 138.049 116.508C140.281 116.955 142.513 116.485 144.767 116.182C144.155 116.262 144.996 116.165 145.042 116.159C145.305 116.136 145.568 116.113 145.831 116.102C146.358 116.073 146.884 116.073 147.411 116.085C148.555 116.113 149.699 116.228 150.838 116.365C155.044 116.869 159.776 117.904 163.798 116.045C164.891 115.541 165.858 114.712 166.465 113.67C167.214 112.377 167.191 110.872 167.203 109.43C167.226 106.764 167.243 104.092 167.266 101.425C167.306 96.0865 167.352 90.7479 167.392 85.4151C167.403 84.0704 166.201 82.7773 164.817 82.8402C163.323 82.9089 162.362 83.9731 162.242 85.4151V85.5009C162.122 86.8456 163.501 88.133 164.811 88.0758C166.304 88.0071 167.266 86.9429 167.386 85.5009V85.4151H162.242C162.208 89.7066 162.173 93.9923 162.139 98.2838C162.122 100.43 162.105 102.575 162.087 104.715C162.082 105.717 162.07 106.718 162.064 107.719C162.059 108.818 162.133 109.957 162.019 111.049C162.07 110.535 161.956 111.273 161.916 111.347C161.973 111.244 162.03 110.838 161.916 111.238L162.093 111.015C162.013 111.112 161.921 111.198 161.83 111.284C162.202 110.866 161.91 111.227 161.727 111.336C161.612 111.404 161.492 111.456 161.378 111.524C161.893 111.221 161.389 111.519 161.241 111.564C160.846 111.696 160.445 111.765 160.039 111.851C160.748 111.702 159.919 111.856 159.799 111.868C159.535 111.891 159.272 111.908 159.009 111.919C158.568 111.936 158.134 111.942 157.693 111.931C156.634 111.908 155.582 111.816 154.529 111.696C152.595 111.473 150.666 111.158 148.727 111.015C146.684 110.866 144.716 111.027 142.69 111.33C142.455 111.364 142.215 111.399 141.98 111.439C141.196 111.564 142.501 111.387 141.717 111.479C141.328 111.524 140.939 111.564 140.544 111.576C140.315 111.587 140.086 111.587 139.852 111.576C139.858 111.576 139.114 111.536 139.52 111.57C139.926 111.605 139.217 111.507 139.205 111.502C139.051 111.467 138.307 111.118 138.782 111.387C138.65 111.313 138.519 111.233 138.387 111.164C137.866 110.884 138.616 111.484 138.238 111.038C138.175 110.964 137.746 110.432 138.089 110.918C137.986 110.775 137.895 110.626 137.803 110.472C137.712 110.317 137.637 110.163 137.563 109.997C137.821 110.546 137.552 109.911 137.523 109.814C137.471 109.642 137.426 109.47 137.386 109.299C137.369 109.213 137.283 108.526 137.317 108.921C137.145 106.89 137.46 104.835 137.437 102.798C137.414 100.761 137.237 98.7072 137.031 96.6759C136.619 92.619 136.093 88.5336 136.464 84.4538C136.482 84.2707 136.499 84.0933 136.522 83.9102C136.607 83.0691 136.384 84.3508 136.573 83.5841C136.63 83.338 136.676 83.0977 136.756 82.8574C136.728 82.9489 136.585 83.2865 136.796 82.7887C137.008 82.2909 136.453 83.0462 136.865 82.68C136.979 82.5827 137.449 82.2623 136.945 82.5713C137.06 82.5026 137.168 82.4225 137.283 82.3596C137.403 82.2909 137.523 82.2337 137.643 82.1765C137.34 82.3023 137.328 82.3138 137.603 82.2108C137.941 82.125 138.267 82.0334 138.61 81.9647C137.924 82.0963 138.719 81.9762 138.816 81.9705C139.091 81.959 139.371 81.9647 139.646 81.9705C140.109 81.9876 140.567 82.0391 141.025 82.0906C141.929 82.1936 140.544 82.022 141.443 82.1421C141.855 82.1993 142.267 82.2566 142.678 82.3081C147.222 82.8745 151.731 82.0048 156.262 81.7587C157.435 81.6958 158.62 81.6729 159.793 81.7359C160.045 81.7473 160.296 81.7645 160.548 81.7874C160.691 81.7988 161.321 81.9247 160.731 81.8045C160.943 81.8503 161.16 81.8846 161.372 81.9361C161.452 81.9533 162.179 82.2108 161.876 82.0792C161.515 81.9247 162.122 82.228 162.127 82.228C162.368 82.3882 162.362 82.3767 162.105 82.1936C162.208 82.2852 162.305 82.3824 162.396 82.4912C161.99 82.0277 162.362 82.5026 162.362 82.5026C162.494 82.7658 162.488 82.7544 162.351 82.4683C162.396 82.6056 162.431 82.7372 162.459 82.8803C162.631 83.5097 162.482 82.3939 162.465 83.0519C162.465 83.2751 162.465 83.4925 162.459 83.7157C162.454 83.9388 162.425 84.162 162.402 84.3851C162.471 83.75 162.351 84.6827 162.328 84.7971C162.099 86.1189 162.677 87.6352 164.124 87.9671C165.372 88.2532 167.048 87.5894 167.294 86.1704V86.1647Z" fill="#801424"/>
<path d="M106.092 80.5959C106.91 76.6592 105.686 73.3233 104.793 69.4037C104.564 68.3909 104.335 67.3782 104.101 66.3596C103.431 63.4128 102.739 60.4088 101.12 57.8282C100.57 56.9527 99.918 56.1288 99.4602 55.2018C99.1226 54.5152 98.9052 53.7885 98.6877 53.0618C97.3259 48.5243 95.781 44.6047 94.4134 40.0672L94.4478 39.2948C94.1845 32.9663 93.9156 26.6378 93.6524 20.3036C93.5265 17.351 93.4064 14.3756 93.8641 11.4574C94.1674 9.54629 94.6995 7.50354 93.8527 5.7469C93.1031 4.19625 91.3922 3.24068 89.647 2.91453C87.9018 2.58838 86.1051 2.78865 84.337 2.99464C83.0782 3.14341 81.7049 3.33796 80.8409 4.23058C79.4734 5.63818 80.0799 7.87547 80.5205 9.758C81.6992 14.7819 81.0183 20.0118 81.0069 25.1672C81.0011 28.1713 81.2186 31.1753 81.0183 34.1736C80.5548 41.1086 78.2775 48.0837 75.5939 54.5438L75.2162 55.2648C73.9517 58.9726 72.6356 61.227 71.3711 64.9349C70.8218 66.5485 70.2667 68.1678 69.912 69.8329C69.4256 72.0873 69.2997 74.399 69.1738 76.705C68.8019 83.5198 69.1853 90.6952 68.8191 97.5043V97.9563C69.0136 103.587 68.3499 108.565 68.5444 114.195C68.6474 117.113 68.7561 120.077 69.7003 122.853C70.6444 125.628 72.5498 128.237 75.3364 129.393C76.5552 129.902 77.8884 130.108 79.2102 130.24C81.9338 130.514 84.6804 130.486 87.4155 130.463C91.5067 130.423 95.6265 130.383 99.6547 129.69C101.085 129.444 102.584 129.072 103.597 128.071C104.942 126.744 105.062 124.695 105.102 122.847C105.411 109.011 105.726 95.1755 106.035 81.3397L106.086 80.5844L106.092 80.5959Z" fill="#801424"/>
<path d="M108.575 81.2777C109.119 78.5083 108.919 75.8132 108.324 73.0667C107.78 70.5548 107.133 68.06 106.561 65.5538C105.989 63.0476 105.36 60.6329 104.301 58.3098C103.78 57.1768 103.099 56.164 102.413 55.1284C102.247 54.8766 102.081 54.6248 101.932 54.3616C101.846 54.2128 101.766 54.0583 101.692 53.9039C101.692 53.8924 101.526 53.5148 101.618 53.7494C101.709 53.984 101.566 53.5949 101.56 53.5834C101.509 53.4232 101.452 53.263 101.4 53.1028C101.291 52.7709 101.2 52.439 101.097 52.1129C100.359 49.6868 99.5233 47.2893 98.6993 44.886C98.2816 43.6673 97.8696 42.4485 97.4748 41.2183C97.3775 40.915 97.2803 40.6117 97.1887 40.3085C97.1487 40.1769 97.1143 40.0395 97.0685 39.9137C96.8397 39.33 97.0686 39.8679 96.9999 40.0395C97.0743 39.8564 97.0285 39.5074 97.0285 39.3071C97.0285 36.6636 96.8053 33.9972 96.6966 31.3593L96.3533 23.1426C96.2446 20.4933 96.0672 17.8326 96.1359 15.1833C96.153 14.5368 96.1816 13.8902 96.2389 13.2493C96.2675 12.9289 96.2961 12.6085 96.3361 12.288C96.2904 12.5913 96.3304 12.351 96.3361 12.288C96.3647 12.082 96.3991 11.876 96.4334 11.6701C96.6508 10.3712 96.9369 9.03795 96.8855 7.71046C96.7767 4.95247 95.289 2.51491 92.7771 1.29614C90.2766 0.0830811 87.5815 0.0659152 84.8693 0.369179C82.3059 0.655277 79.3877 1.09015 78.106 3.68219C76.9215 6.06825 77.6482 8.5287 78.1575 10.9834C78.2204 11.2924 78.2776 11.6014 78.3291 11.9161C78.3406 11.9676 78.4264 12.5169 78.3863 12.2422C78.352 11.9962 78.4092 12.4368 78.4092 12.4368C78.4893 13.1063 78.5466 13.7815 78.5809 14.4509C78.6496 15.7613 78.6495 17.0716 78.6209 18.3819C78.5637 20.9797 78.4092 23.5717 78.4378 26.1695C78.4664 28.7673 78.6267 31.6054 78.4378 34.3233C78.3978 34.8955 78.3463 35.4677 78.2833 36.0342C78.2662 36.2116 78.2433 36.3832 78.2204 36.5606C78.2204 36.5606 78.1632 36.9955 78.1975 36.7437C78.2376 36.4633 78.1575 37.0012 78.1517 37.0584C78.1231 37.2358 78.1002 37.4074 78.0716 37.5848C77.8656 38.8608 77.6082 40.1311 77.3106 41.3899C76.7098 43.9248 75.9373 46.4195 75.0619 48.8743C74.6385 50.053 74.1921 51.226 73.7287 52.3875C73.6142 52.6736 73.4941 52.9655 73.3796 53.2516L73.3281 53.3774C73.2022 53.6807 73.1908 53.7036 73.2995 53.4518C73.2995 53.2687 73.414 53.2229 73.3396 53.3431C73.1565 53.6292 73.0134 53.9725 72.8818 54.2815C72.6129 54.9166 72.4069 55.5747 72.1608 56.2155C72.0579 56.4902 71.9491 56.7591 71.8404 57.028C71.7946 57.1425 71.7489 57.2512 71.7031 57.3656C71.6344 57.5316 71.4971 57.8635 71.6401 57.5201C71.1595 58.6588 70.6617 59.786 70.181 60.9247C69.2026 63.2535 68.3329 65.6625 67.692 68.1115C66.9939 70.7836 66.7879 73.5531 66.6334 76.2996C66.4789 79.0462 66.4446 81.5753 66.4332 84.2188C66.4217 86.8624 66.4446 89.4544 66.416 92.0751C66.3874 94.4153 66.2443 96.7499 66.2844 99.0902C66.3645 104.223 65.8095 109.344 65.9868 114.477C66.1642 119.609 66.7135 124.891 70.2898 128.884C73.866 132.878 79.7482 133.061 84.875 133.067C90.2651 133.073 95.8498 133.182 101.143 132.037C103.941 131.431 106.166 129.829 107.128 127.071C107.923 124.793 107.706 122.11 107.757 119.735C108.003 108.835 108.249 97.9401 108.495 87.0397C108.541 84.894 108.53 82.7425 108.673 80.6025C108.764 79.2579 107.425 77.9704 106.098 78.0276C104.627 78.0963 103.62 79.1606 103.523 80.6025C103.38 82.6968 103.397 84.8024 103.346 86.8967C103.288 89.5002 103.231 92.1094 103.168 94.7129C103.054 99.9256 102.934 105.138 102.819 110.351C102.762 112.954 102.705 115.564 102.642 118.167C102.613 119.495 102.585 120.822 102.55 122.15C102.539 122.676 102.533 123.203 102.504 123.723C102.493 123.941 102.476 124.158 102.459 124.376C102.424 124.868 102.459 124.444 102.476 124.341C102.453 124.484 102.43 124.627 102.401 124.77C102.356 125.016 102.293 125.257 102.218 125.497C102.19 125.6 102.15 125.697 102.115 125.8C102.127 125.76 102.316 125.428 102.167 125.669C102.035 125.88 101.938 126.098 101.789 126.298C102.161 125.789 101.297 126.63 101.783 126.292C101.6 126.424 101.406 126.527 101.211 126.641C101.12 126.693 100.771 126.819 101.211 126.659C101.103 126.699 100.994 126.739 100.885 126.773C100.37 126.945 99.8437 127.065 99.3116 127.162C99.014 127.219 98.7165 127.265 98.4189 127.317C98.3274 127.334 97.6694 127.431 98.0012 127.385C97.3089 127.477 96.6165 127.551 95.9242 127.608C94.671 127.717 93.4179 127.786 92.1648 127.826C89.5957 127.912 87.0151 127.935 84.4402 127.923C83.1184 127.917 81.7966 127.883 80.4806 127.792C79.8798 127.751 79.279 127.694 78.6839 127.626C79.0615 127.671 78.4207 127.586 78.312 127.563C77.9629 127.5 77.6139 127.431 77.2763 127.34C76.9787 127.259 76.6869 127.145 76.3951 127.065C76.1033 126.985 76.3779 127.065 76.4409 127.099C76.3436 127.059 76.2463 127.008 76.1491 126.962C75.6741 126.727 75.2221 126.447 74.7987 126.126C75.1534 126.395 74.8101 126.121 74.6671 125.989C74.484 125.823 74.3066 125.652 74.1406 125.474C73.9976 125.32 73.8545 125.165 73.7172 124.999C73.6657 124.942 73.3968 124.582 73.5913 124.845C73.7859 125.108 73.5112 124.719 73.4826 124.679C73.2194 124.301 72.9848 123.906 72.7674 123.5C72.6529 123.283 72.5557 123.054 72.4355 122.836C72.2982 122.579 72.4698 122.934 72.4813 122.968C72.4126 122.808 72.3497 122.642 72.2924 122.476C71.8919 121.377 71.6344 120.239 71.4513 119.088C71.4513 119.088 71.3884 118.654 71.4227 118.905C71.4628 119.191 71.3941 118.648 71.3884 118.591C71.3598 118.327 71.3369 118.064 71.314 117.795C71.2568 117.132 71.2224 116.468 71.1881 115.804C71.1309 114.58 71.0908 113.355 71.0908 112.125C71.0908 109.67 71.2224 107.215 71.3254 104.761C71.4284 102.306 71.3998 100.086 71.4055 97.7398C71.4113 95.3938 71.5658 93.0478 71.5772 90.6961C71.6058 85.6607 71.5257 80.6311 71.8232 75.6015C71.8576 75.0007 71.8976 74.4056 71.9491 73.8048C71.9777 73.4844 72.0064 73.164 72.0407 72.8378C72.0579 72.7005 72.0693 72.5632 72.0865 72.4258C72.0922 72.3629 72.1723 71.785 72.1208 72.1512C72.2982 70.9381 72.5728 69.7422 72.9161 68.5635C73.2595 67.3848 73.6772 66.1546 74.1006 64.9701C74.2894 64.4437 74.484 63.923 74.6957 63.4023C74.7872 63.1734 74.8788 62.9503 74.9703 62.7271C75.1649 62.2579 75.0276 62.5841 74.9875 62.6813C75.0504 62.5383 75.1077 62.3952 75.1706 62.2522C75.657 61.1135 76.1548 59.9806 76.6297 58.8362C76.8357 58.3384 77.036 57.8406 77.2248 57.337C77.3335 57.0509 77.4479 56.7591 77.5452 56.4673C77.7455 55.8436 77.3678 56.7305 77.5395 56.4215C78.6038 54.4989 79.3019 52.2903 80.04 50.2304C81.7451 45.4582 83.0097 40.5431 83.5075 35.4906C83.7593 32.9443 83.702 30.398 83.6391 27.8403C83.5762 25.2826 83.6448 22.7935 83.7364 20.2702C83.8279 17.7468 83.8851 15.2978 83.6277 12.8202C83.4846 11.4526 83.2729 10.1022 82.9582 8.7633C82.8495 8.31126 82.7522 7.85351 82.6607 7.39575C82.5577 6.89222 82.6721 7.73907 82.632 7.22981C82.6092 6.94944 82.6091 6.67478 82.6034 6.40013C82.592 5.96526 82.6378 6.50884 82.5748 6.48596C82.5634 6.48596 82.632 6.21702 82.6378 6.19986C82.6606 6.10259 82.695 6.01676 82.7236 5.91948C82.7121 5.95381 82.5176 6.33146 82.6721 6.09114C82.8609 5.78788 82.3459 6.37152 82.6206 6.12547C82.695 6.06253 82.7751 5.9767 82.838 5.90804C82.7923 5.95381 82.489 6.10831 82.7293 6.00531C82.9696 5.90232 83.0841 5.82221 82.7579 5.94809C83.1871 5.78216 83.6391 5.67916 84.0969 5.60477C84.2056 5.58761 84.3086 5.57044 84.4173 5.55328C84.3257 5.56472 83.8794 5.61622 84.3715 5.56472C84.6805 5.53039 84.9895 5.49034 85.2985 5.46173C85.8764 5.39878 86.4543 5.34729 87.0322 5.3244C87.3412 5.31295 87.6559 5.30723 87.9649 5.31295C88.0965 5.31295 88.2281 5.31868 88.3654 5.33012C88.4227 5.33012 89.0807 5.39306 88.8175 5.35873C88.5543 5.3244 88.9949 5.39306 89.0006 5.39306C89.1036 5.41595 89.2123 5.43312 89.3153 5.46173C89.5613 5.51895 89.7959 5.59333 90.0363 5.66772C90.4997 5.81077 89.7845 5.51322 90.2136 5.73066C90.4654 5.86226 90.7057 5.99959 90.9518 6.14836C91.0719 6.22275 91.2665 6.45162 90.9346 6.11975C91.009 6.19414 91.0891 6.25708 91.1635 6.32574C91.2379 6.3944 91.6041 6.84072 91.4381 6.6004C91.2436 6.32574 91.4839 6.69195 91.524 6.76061C91.5755 6.85216 91.627 6.93799 91.6727 7.02954C91.6384 6.95516 91.5926 6.71484 91.6327 6.97232C91.6613 7.16115 91.73 7.35569 91.7757 7.54452C91.6727 7.12109 91.7757 7.61891 91.7757 7.80201C91.7815 8.08238 91.77 8.36276 91.7471 8.64314C91.7357 8.7633 91.7242 8.88346 91.7128 9.00934C91.7242 8.90062 91.7872 8.53442 91.7071 9.05512C91.6613 9.34122 91.6155 9.62159 91.564 9.90769C91.112 12.5283 90.9575 15.1318 91.0262 17.7868C91.1578 22.9652 91.4496 28.1436 91.667 33.3162C91.7586 35.5077 91.8902 37.6993 91.8902 39.8908C91.8902 41.0809 92.4681 42.334 92.84 43.4613C93.2119 44.5885 93.5953 45.7215 93.9844 46.8487C94.7798 49.1718 95.5751 51.4892 96.2846 53.8409C96.668 55.1169 97.1372 56.3586 97.8582 57.4858C98.4819 58.4585 99.1571 59.3855 99.672 60.4269C99.7464 60.5757 99.8151 60.7302 99.8895 60.8789C99.8895 60.8904 100.061 61.268 99.9581 61.0334C99.8551 60.7988 100.015 61.1822 100.021 61.1936C100.067 61.3138 100.113 61.4282 100.153 61.5484C100.37 62.1378 100.565 62.7386 100.742 63.3451C101.057 64.438 101.32 65.548 101.572 66.6524C102.127 69.0785 102.722 71.4932 103.277 73.9136C103.397 74.4514 103.511 74.9836 103.609 75.5271C103.637 75.6931 103.66 75.859 103.695 76.025C103.752 76.3225 103.695 76.0135 103.695 75.962C103.735 76.2538 103.758 76.5456 103.78 76.8317C103.82 77.3811 103.832 77.9247 103.809 78.474C103.798 78.7314 103.78 78.9889 103.752 79.2464C103.7 79.7786 103.723 79.4639 103.74 79.3494C103.712 79.5268 103.677 79.7042 103.643 79.8816C103.386 81.1976 104.015 82.7254 105.44 83.0515C106.716 83.3433 108.329 82.6682 108.61 81.2548L108.575 81.2777Z" fill="#801424"/>
<path d="M103.099 85.6854C103.385 84.0374 103.614 82.1606 102.504 80.8732C101.588 79.8146 100.043 79.5056 98.6186 79.3969C92.9195 78.9678 87.1918 80.6043 81.5156 79.9977C79.9535 79.8318 78.3972 79.4942 76.8293 79.6029C75.2615 79.7116 73.625 80.3639 72.864 81.6857C72.4864 82.338 72.3605 83.0933 72.2689 83.8315C71.4107 90.8637 73.4477 97.9533 73.1215 105.031C73.0529 106.571 72.8698 108.127 73.0986 109.655C73.3275 111.182 74.037 112.727 75.376 113.58C77.5675 114.976 80.4571 114.101 83.072 113.809C88.2389 113.231 93.4516 115.194 98.6186 114.581C100.278 114.387 102.12 113.734 102.693 112.224C102.899 111.675 102.91 111.074 102.91 110.484C102.973 102.193 103.042 93.9021 103.105 85.6053V85.6911L103.099 85.6854Z" fill="#801424"/>
<path d="M105.583 86.3697C105.961 84.1496 106.224 81.7121 104.868 79.7437C103.426 77.6495 101.028 77.0143 98.6193 76.8255C94.0761 76.4707 89.5672 77.4435 85.0354 77.5522C83.9482 77.5751 82.8667 77.5522 81.7853 77.4549C80.7038 77.3577 79.5537 77.1173 78.2091 77.0372C75.9661 76.8999 73.7116 77.3977 71.955 78.8454C69.9637 80.4818 69.7005 83.0567 69.546 85.4599C69.403 87.7201 69.5174 89.9917 69.712 92.2462C70.1068 96.7837 70.7762 101.287 70.5016 105.853C70.3643 108.17 70.3643 110.436 71.3198 112.599C72.2754 114.762 74.1064 116.267 76.338 116.713C78.5696 117.16 80.8011 116.69 83.0556 116.387C82.4433 116.467 83.2845 116.37 83.3302 116.364C83.5934 116.341 83.8566 116.318 84.1199 116.307C84.6463 116.278 85.1727 116.278 85.6991 116.29C86.8435 116.318 87.9879 116.433 89.1266 116.57C93.3322 117.074 98.0643 118.109 102.087 116.25C103.18 115.746 104.147 114.917 104.753 113.875C105.503 112.582 105.48 111.077 105.491 109.635C105.514 106.969 105.531 104.297 105.554 101.63C105.594 96.2916 105.64 90.953 105.68 85.6202C105.692 84.2755 104.49 82.9823 103.105 83.0453C101.612 83.1139 100.651 84.1782 100.53 85.6202V85.706C100.41 87.0507 101.789 88.3381 103.1 88.2809C104.593 88.2122 105.554 87.1479 105.674 85.706V85.6202H100.53C100.496 89.9116 100.462 94.1974 100.427 98.4889C100.41 100.635 100.393 102.78 100.376 104.92C100.37 105.922 100.359 106.923 100.353 107.924C100.347 109.023 100.422 110.162 100.307 111.255C100.359 110.74 100.244 111.478 100.204 111.552C100.262 111.449 100.319 111.043 100.204 111.443L100.382 111.22C100.302 111.317 100.21 111.403 100.118 111.489C100.49 111.071 100.199 111.432 100.015 111.541C99.901 111.609 99.7809 111.661 99.6664 111.729C100.181 111.426 99.6779 111.724 99.5291 111.77C99.1343 111.901 98.7337 111.97 98.3275 112.056C99.037 111.907 98.2073 112.061 98.0872 112.073C97.824 112.096 97.5607 112.113 97.2975 112.124C96.8569 112.141 96.4221 112.147 95.9815 112.136C94.9229 112.113 93.8701 112.021 92.8172 111.901C90.8832 111.678 88.9549 111.363 87.0152 111.22C84.9724 111.071 83.0041 111.232 80.9785 111.535C80.7439 111.569 80.5036 111.604 80.269 111.644C79.4851 111.77 80.7897 111.592 80.0058 111.684C79.6167 111.729 79.2276 111.77 78.8328 111.781C78.6039 111.792 78.375 111.792 78.1404 111.781C78.1461 111.781 77.4023 111.741 77.8085 111.775C78.2148 111.81 77.5053 111.712 77.4938 111.707C77.3393 111.672 76.5955 111.323 77.0704 111.592C76.9388 111.518 76.8072 111.438 76.6756 111.369C76.1549 111.089 76.9045 111.689 76.5268 111.243C76.4639 111.169 76.0347 110.637 76.378 111.123C76.275 110.98 76.1835 110.831 76.0919 110.677C76.0004 110.522 75.926 110.368 75.8516 110.202C76.1091 110.751 75.8402 110.116 75.8116 110.019C75.7601 109.847 75.7143 109.675 75.6742 109.504C75.6571 109.418 75.5712 108.731 75.6056 109.126C75.4339 107.095 75.7486 105.041 75.7257 103.003C75.7028 100.966 75.5255 98.9123 75.3195 96.881C74.9075 92.8241 74.3811 88.7386 74.753 84.6589C74.7702 84.4758 74.7873 84.2984 74.8102 84.1153C74.8961 83.2742 74.6729 84.5559 74.8617 83.7891C74.9189 83.5431 74.9647 83.3028 75.0448 83.0624C75.0162 83.154 74.8732 83.4916 75.0849 82.9938C75.2966 82.496 74.7416 83.2513 75.1535 82.8851C75.268 82.7878 75.7372 82.4674 75.2336 82.7763C75.3481 82.7077 75.4568 82.6276 75.5713 82.5646C75.6914 82.496 75.8116 82.4388 75.9317 82.3815C75.6285 82.5074 75.617 82.5189 75.8917 82.4159C76.2293 82.33 76.5554 82.2385 76.8987 82.1698C76.2121 82.3014 77.0075 82.1813 77.1047 82.1755C77.3794 82.1641 77.6598 82.1698 77.9344 82.1755C78.3979 82.1927 78.8557 82.2442 79.3134 82.2957C80.2175 82.3987 78.8328 82.227 79.7311 82.3472C80.1431 82.4044 80.5551 82.4616 80.9671 82.5131C85.5103 83.0796 90.0192 82.2099 94.551 81.9638C95.724 81.9009 96.9084 81.878 98.0814 81.9409C98.3332 81.9524 98.585 81.9695 98.8367 81.9924C98.9798 82.0039 99.6092 82.1298 99.0198 82.0096C99.2316 82.0554 99.449 82.0897 99.6607 82.1412C99.7408 82.1584 100.468 82.4159 100.164 82.2843C99.8038 82.1298 100.41 82.433 100.416 82.433C100.656 82.5932 100.651 82.5818 100.393 82.3987C100.496 82.4903 100.593 82.5875 100.685 82.6962C100.279 82.2328 100.651 82.7077 100.651 82.7077C100.782 82.9709 100.776 82.9594 100.639 82.6734C100.685 82.8107 100.719 82.9423 100.748 83.0853C100.92 83.7147 100.771 82.599 100.754 83.257C100.754 83.4802 100.754 83.6976 100.748 83.9207C100.742 84.1439 100.714 84.3671 100.691 84.5902C100.759 83.9551 100.639 84.8878 100.616 85.0022C100.387 86.324 100.965 87.8403 102.413 88.1722C103.66 88.4583 105.337 87.7945 105.583 86.3755V86.3697Z" fill="#801424"/>
<path d="M138.81 138.344C143.891 133.343 145.185 123.924 139.297 118.975C136.911 116.966 134.004 115.879 130.966 115.324C129.386 115.038 127.79 114.866 126.199 114.66C126.01 114.637 125.163 114.575 126.125 114.649C125.959 114.637 125.793 114.603 125.633 114.58C125.221 114.523 124.809 114.46 124.397 114.397C123.447 114.254 122.503 114.094 121.559 113.928C118.057 113.299 114.584 112.492 111.185 111.433C109.417 110.884 107.671 110.272 105.955 109.585C105.8 109.522 105.64 109.459 105.486 109.396L105.251 109.299C104.902 109.15 104.942 109.167 105.371 109.35C105.28 109.167 104.387 108.921 104.21 108.841C103.363 108.458 102.522 108.057 101.692 107.634C100.13 106.838 98.6422 105.94 97.1259 105.053C95.8327 104.292 94.4365 103.714 93.0518 103.142C90.2595 101.992 87.3699 101.088 84.4918 100.212C77.5968 98.1067 70.7762 95.6921 63.6695 94.4046C61.9072 94.0842 59.8816 94.8853 59.4467 96.8021C59.0634 98.4844 59.956 100.682 61.8442 101.025C68.0926 102.158 74.0492 104.229 80.1087 106.06C82.8782 106.896 85.6533 107.72 88.3827 108.687C89.0293 108.916 89.6759 109.15 90.3167 109.402C90.6257 109.522 90.929 109.648 91.2322 109.768C91.7529 109.98 90.9805 109.665 90.9404 109.642C91.1636 109.751 91.3982 109.842 91.6213 109.945C92.7543 110.46 93.8014 111.084 94.8657 111.719C101.051 115.41 107.935 117.933 114.933 119.564C118.486 120.394 122.079 120.977 125.696 121.458C126.422 121.555 127.149 121.653 127.881 121.733C126.657 121.595 127.761 121.716 128.042 121.761C128.373 121.813 128.705 121.864 129.037 121.927C130.273 122.15 131.509 122.442 132.688 122.883C132.94 122.974 133.455 123.283 132.539 122.808C132.699 122.889 132.871 122.957 133.031 123.032C133.352 123.186 133.666 123.358 133.975 123.541C134.078 123.604 134.176 123.667 134.273 123.73C134.37 123.793 135.017 124.268 134.502 123.873C133.987 123.478 134.479 123.867 134.565 123.941C134.696 124.056 134.828 124.182 134.954 124.308C135.08 124.433 135.206 124.565 135.32 124.697C135.555 124.96 135.577 125.326 135.234 124.571C135.383 124.897 135.658 125.2 135.829 125.521C135.892 125.635 135.944 125.75 136.001 125.864C136.304 126.442 135.715 125.08 136.001 125.881C136.127 126.247 136.23 126.625 136.304 127.008C136.373 127.346 136.264 127.815 136.304 126.934C136.293 127.134 136.338 127.363 136.344 127.569C136.356 127.998 136.327 128.416 136.304 128.845C136.27 129.44 136.304 128.622 136.344 128.57C136.224 128.742 136.23 129.2 136.178 129.412C136.087 129.795 135.978 130.173 135.846 130.545C135.812 130.648 135.635 130.951 135.663 131.048C135.864 130.59 135.909 130.482 135.801 130.722C135.755 130.819 135.715 130.916 135.669 131.014C135.486 131.397 135.28 131.763 135.062 132.124C134.971 132.273 134.874 132.416 134.776 132.559C134.719 132.644 134.656 132.73 134.599 132.81C134.382 133.102 134.439 133.034 134.759 132.604C134.485 132.73 134.164 133.274 133.941 133.491C132.659 134.75 132.585 137.102 133.941 138.349C135.32 139.614 137.426 139.694 138.799 138.349L138.81 138.344Z" fill="#F9F5E7"/>
<path d="M129.438 136.806C131.309 136.159 132.894 134.792 133.655 132.961C134.302 131.41 133.85 129.688 133.186 128.154C131.578 124.446 126.754 123.731 122.738 123.319C113.365 122.363 104.044 120.183 95.5754 116.058C91.6444 114.141 87.9194 111.824 83.9484 109.993C70.5418 103.813 54.8121 103.601 40.6846 107.875C26.5571 112.15 13.9516 120.647 3.41748 130.992L3.73791 131.53C17.2303 151.769 38.1326 166.571 61.4611 173.449C74.6159 177.329 88.5259 178.616 102.167 177.226C110.149 176.413 118.017 174.691 125.724 172.465C143.354 167.372 160.199 159.596 175.511 149.486C178.046 147.809 180.369 145.818 182.355 143.523C184.34 141.229 186.028 138.591 185.542 135.495C185.359 134.328 184.787 133.229 183.86 132.491C181.365 130.5 178.195 131.936 175.586 133.298C161.693 140.565 146.913 146.367 131.446 148.953C115.98 151.54 99.7868 150.796 85.0871 145.343C82.3233 144.319 79.491 143.043 78.0147 140.325C77.1221 138.682 77.042 136.663 78.0776 135.106C79.9773 132.251 84.1658 132.795 87.4331 133.676C97.435 136.371 108.078 139.478 118.446 139.352C120.952 139.323 123.436 138.888 125.799 138.07L129.432 136.811L129.438 136.806Z" fill="#F9F5E7"/>
<path d="M130.353 140.11C133.043 139.125 135.417 137.357 136.619 134.685C137.952 131.727 137.403 128.076 135.589 125.404C132.705 121.158 127.458 120.374 122.737 119.877C122.074 119.808 121.416 119.734 120.752 119.654C120.42 119.613 120.094 119.573 119.762 119.528C120.5 119.625 119.413 119.476 119.356 119.47C117.925 119.264 116.506 119.03 115.087 118.755C112.364 118.234 109.668 117.588 107.008 116.798C105.737 116.421 104.473 116.009 103.22 115.562C102.596 115.339 101.972 115.105 101.354 114.864C101.045 114.744 100.736 114.618 100.427 114.498C100.222 114.412 100.016 114.332 99.8152 114.246C100.124 114.378 100.096 114.361 99.718 114.2C97.1202 113.033 94.6083 111.717 92.1135 110.355C87.1297 107.632 82.0657 105.166 76.5669 103.672C71.4114 102.27 66.0271 101.578 60.6885 101.526C49.8053 101.423 39.1281 104.061 29.2692 108.57C18.7236 113.394 9.24803 120.46 0.991241 128.557C-0.0902103 129.615 -0.313367 131.418 0.453376 132.717C1.79232 134.983 3.43452 137.094 5.04239 139.171C6.87342 141.546 8.796 143.846 10.8273 146.055C14.7526 150.318 19.044 154.237 23.6216 157.79C33.1086 165.143 43.6485 170.928 54.9665 174.945C67.9325 179.551 81.8597 181.657 95.6096 181.119C109.726 180.564 123.647 177.171 136.916 172.462C149.648 167.947 161.916 162.082 173.371 154.924C176.249 153.127 179.116 151.296 181.674 149.059C184.083 146.947 186.52 144.384 187.859 141.437C189.496 137.844 189.593 133.432 186.68 130.428C183.768 127.424 179.425 127.819 175.82 129.381C172.81 130.685 169.944 132.356 166.98 133.764C165.469 134.479 163.953 135.177 162.425 135.852C161.664 136.19 160.897 136.522 160.125 136.848C159.759 137.003 160.113 136.854 160.176 136.825C159.97 136.911 159.764 136.997 159.558 137.083C159.146 137.254 158.734 137.42 158.322 137.586C152.04 140.127 145.597 142.278 139.011 143.886C135.721 144.687 132.396 145.357 129.043 145.872C128.66 145.929 128.271 145.986 127.887 146.043C127.195 146.146 127.658 146.078 127.807 146.055C127.584 146.083 127.366 146.112 127.143 146.14C126.256 146.249 125.375 146.352 124.488 146.438C122.823 146.604 121.158 146.73 119.487 146.816C116.094 146.987 112.695 146.987 109.302 146.799C107.637 146.707 105.978 146.57 104.318 146.387C103.929 146.346 103.546 146.301 103.163 146.249C102.939 146.221 102.722 146.192 102.505 146.163C103.1 146.243 102.533 146.163 102.43 146.152C101.555 146.02 100.674 145.889 99.7981 145.734C96.5194 145.156 93.2808 144.39 90.0994 143.411C88.5087 142.919 86.9237 142.387 85.3673 141.786C85.0984 141.683 84.4461 141.386 85.064 141.672C84.7379 141.523 84.406 141.38 84.0856 141.214C83.439 140.893 82.8611 140.499 82.2488 140.121C82.7981 140.464 82.2488 140.121 82.0199 139.904C81.7911 139.686 81.5851 139.463 81.3734 139.234C81.2246 139.074 81.1216 138.759 81.4134 139.291C81.3505 139.171 81.2589 139.062 81.1903 138.948C81.093 138.788 81.0129 138.61 80.9156 138.456C80.7268 138.17 80.9957 138.914 80.8755 138.324C80.8412 138.147 80.784 137.935 80.7382 137.764C80.7611 137.832 80.7497 138.341 80.7726 137.964C80.784 137.781 80.784 137.575 80.7726 137.392C80.7497 137.014 80.7611 137.535 80.7382 137.598C80.7954 137.426 80.8355 137.226 80.887 137.048C80.8527 137.163 80.5952 137.678 80.8984 137.083C81.1102 136.659 80.8298 136.882 80.8012 137.146C80.8126 137.048 81.0529 136.877 81.1159 136.802C81.5622 136.276 80.9671 136.985 80.9442 136.905C80.9442 136.888 81.3447 136.648 81.3219 136.665C81.6595 136.425 81.3161 136.665 81.3161 136.642C81.3047 136.779 80.99 136.734 81.4306 136.608C81.6938 136.533 81.9513 136.47 82.2145 136.407C82.8897 136.247 81.9971 136.447 82.0085 136.43C82.0428 136.367 82.5464 136.396 82.615 136.396C83.2044 136.379 83.7766 136.43 84.3602 136.482C84.8523 136.522 83.7194 136.367 84.2057 136.465C84.3717 136.499 84.5376 136.522 84.7093 136.55C85.0411 136.613 85.3673 136.682 85.6934 136.762C92.4167 138.347 98.9798 140.453 105.806 141.62C112.655 142.793 120.048 143.651 126.76 141.351C127.956 140.939 129.152 140.522 130.353 140.11C132.047 139.526 133.346 137.729 132.751 135.887C132.207 134.21 130.342 132.86 128.528 133.489C127.332 133.901 126.136 134.325 124.935 134.731C124.328 134.937 123.716 135.126 123.098 135.286C122.715 135.383 122.325 135.475 121.936 135.555C121.713 135.601 121.49 135.641 121.267 135.681C121.192 135.692 120.323 135.818 120.712 135.772C121.072 135.727 120.512 135.789 120.494 135.789C120.266 135.807 120.042 135.83 119.814 135.847C119.419 135.875 119.018 135.892 118.623 135.898C117.719 135.915 116.815 135.898 115.911 135.87C114.206 135.807 112.501 135.669 110.807 135.463C110.653 135.446 109.628 135.309 110.189 135.389C109.737 135.326 109.279 135.257 108.827 135.189C107.975 135.057 107.122 134.908 106.275 134.748C102.808 134.101 99.3747 133.278 95.9644 132.385C92.8745 131.578 89.7961 130.56 86.6605 129.947C83.7136 129.369 80.3262 129.163 77.6713 130.84C74.2038 133.026 73.0651 137.386 74.6329 141.099C75.9089 144.121 78.541 146.238 81.4821 147.542C87.6275 150.26 94.305 151.885 100.942 152.818C107.815 153.785 114.744 154.043 121.673 153.545C135.263 152.566 148.521 149.001 161.092 143.823C164.353 142.478 167.575 141.059 170.756 139.537C172.313 138.793 173.857 138.027 175.397 137.243C176.083 136.894 176.764 136.533 177.451 136.184C177.754 136.03 178.052 135.875 178.361 135.727C178.538 135.641 178.715 135.561 178.893 135.475C179.476 135.2 178.647 135.538 179.024 135.423C179.351 135.326 179.665 135.194 179.991 135.103C180.174 135.051 180.363 135.011 180.546 134.965C180.621 134.948 181.09 134.874 180.644 134.937C179.986 135.028 181.777 134.885 181.096 134.908C180.701 134.925 181.044 134.891 181.176 134.925C181.227 134.943 181.937 135.217 181.548 135.017C181.159 134.817 181.674 135.131 181.771 135.177C182.103 135.343 181.702 135.137 181.651 135.08C181.765 135.212 181.908 135.337 182.028 135.469C181.943 135.372 181.639 134.908 181.96 135.435C181.994 135.492 182.24 135.881 182.028 135.509C181.817 135.137 182.057 135.606 182.091 135.732C182.126 135.858 182.16 135.995 182.194 136.127C182.366 136.842 182.252 135.824 182.194 136.247C182.149 136.585 182.194 136.951 182.16 137.294C182.252 136.499 182.028 137.643 181.977 137.821C181.931 137.958 181.874 138.095 181.834 138.238C181.691 138.725 182.086 137.798 181.834 138.238C181.611 138.628 181.428 139.028 181.187 139.411C181.004 139.709 180.81 139.995 180.604 140.281C180.518 140.401 180.426 140.522 180.34 140.642C180.724 140.132 180.409 140.55 180.323 140.642C179.78 141.26 179.248 141.883 178.67 142.478C178.16 143.005 177.628 143.508 177.085 143.995C176.81 144.241 176.535 144.475 176.255 144.71C176.095 144.842 175.934 144.979 175.769 145.111C175.591 145.254 175.208 145.54 175.597 145.248C174.309 146.209 172.953 147.079 171.603 147.943C168.845 149.711 166.036 151.399 163.186 153.013C157.435 156.268 151.507 159.209 145.436 161.819C145.293 161.882 144.378 162.271 144.899 162.048C144.498 162.219 144.092 162.385 143.691 162.551C142.936 162.866 142.175 163.169 141.414 163.472C139.84 164.096 138.261 164.697 136.67 165.28C133.592 166.402 130.485 167.443 127.349 168.399C120.735 170.413 113.994 172.078 107.157 173.148C106.699 173.223 106.235 173.291 105.778 173.354C105.549 173.388 105.32 173.417 105.085 173.451C105.16 173.44 105.543 173.394 105.137 173.446C104.215 173.56 103.288 173.675 102.367 173.772C100.645 173.949 98.9226 174.087 97.1946 174.178C93.7442 174.367 90.2825 174.384 86.8264 174.23C85.0411 174.149 83.2616 174.029 81.4821 173.858C80.681 173.783 79.8742 173.697 79.0731 173.6C78.6726 173.554 78.2721 173.503 77.8715 173.451C77.2879 173.383 78.335 173.52 77.7571 173.434C77.471 173.394 77.1849 173.354 76.8988 173.314C73.4771 172.811 70.0839 172.141 66.7309 171.306C63.7039 170.55 60.7114 169.663 57.7645 168.645C56.3684 168.164 54.9837 167.655 53.6047 167.111C52.981 166.871 52.363 166.619 51.7508 166.368C51.6535 166.328 51.0927 166.093 51.499 166.265C51.8766 166.425 51.4361 166.236 51.3846 166.213C50.9897 166.041 50.5949 165.876 50.2058 165.698C44.9359 163.375 39.8548 160.629 35.0255 157.493C32.6337 155.942 30.3048 154.294 28.0447 152.555C28.5768 152.961 27.9073 152.446 27.73 152.303C27.4668 152.097 27.2093 151.891 26.9518 151.679C26.3624 151.204 25.7731 150.718 25.1894 150.232C24.0965 149.316 23.0265 148.378 21.9737 147.416C19.8337 145.46 17.7795 143.417 15.8168 141.288C14.8498 140.241 13.9057 139.171 12.9845 138.084C12.5553 137.575 12.1319 137.065 11.7085 136.55C11.4968 136.293 11.2908 136.036 11.0848 135.772C10.9646 135.624 10.8502 135.475 10.73 135.326C10.73 135.326 10.1922 134.639 10.4725 135C10.7357 135.343 10.3695 134.863 10.3066 134.782C10.2208 134.668 10.1349 134.554 10.0491 134.439C9.82023 134.136 9.59135 133.833 9.36819 133.524C8.97338 132.986 8.58428 132.448 8.20091 131.899C7.58866 131.029 6.97069 130.153 6.4271 129.238L5.88924 133.398C7.63444 131.687 9.43113 130.022 11.285 128.425C12.1376 127.693 12.9959 126.972 13.8657 126.262C14.3406 125.879 14.8212 125.496 15.3019 125.118C16.0972 124.489 14.7697 125.519 15.5765 124.906C15.8626 124.689 16.143 124.477 16.4291 124.26C20.3029 121.37 24.3883 118.749 28.6684 116.501C29.6583 115.98 30.6539 115.482 31.6667 115.002C32.216 114.738 32.771 114.487 33.326 114.235C33.5092 114.149 33.698 114.069 33.8811 113.989C34.0012 113.937 35.1628 113.445 34.459 113.737C36.7134 112.804 39.0022 111.969 41.3368 111.254C43.6714 110.538 46.0116 109.955 48.392 109.491C49.0157 109.371 49.6394 109.257 50.2688 109.154C50.5835 109.102 50.8982 109.051 51.2072 109.005C51.1728 109.005 52.2028 108.856 51.6935 108.931C51.1843 109.005 52.2142 108.868 52.1799 108.868C52.4946 108.828 52.8093 108.793 53.124 108.759C53.8622 108.679 54.6003 108.61 55.3384 108.559C57.7588 108.381 60.1907 108.335 62.6225 108.427C63.887 108.479 65.1459 108.564 66.4047 108.69C66.9254 108.742 67.4518 108.805 67.9725 108.868C67.1829 108.77 68.2243 108.908 68.3101 108.919C68.7278 108.982 69.1398 109.051 69.5575 109.119C71.9378 109.531 74.2896 110.086 76.5955 110.802C77.7971 111.174 78.993 111.586 80.166 112.043C80.4121 112.141 80.6581 112.238 80.8984 112.335C81.0472 112.392 81.6824 112.667 81.0987 112.415C81.8025 112.719 82.5006 113.039 83.1872 113.371C88.1882 115.785 92.8917 118.709 98.03 120.844C102.842 122.846 107.86 124.294 112.97 125.295C115.991 125.885 119.047 126.32 122.108 126.651C122.732 126.72 123.35 126.777 123.973 126.852C124.225 126.88 124.929 126.823 124.042 126.857C124.351 126.846 124.723 126.96 125.026 127.018C126.079 127.207 127.092 127.487 128.105 127.824C128.877 128.076 127.447 127.47 128.15 127.847C128.356 127.956 128.562 128.053 128.763 128.168C128.963 128.282 129.146 128.408 129.341 128.528C129.638 128.746 129.587 128.7 129.18 128.402C129.295 128.5 129.404 128.597 129.512 128.7C129.558 128.74 129.987 129.141 129.964 129.192C129.661 128.792 129.615 128.74 129.827 129.043C129.907 129.175 129.987 129.306 130.062 129.438C130.136 129.553 130.33 129.993 130.039 129.329C130.205 129.713 130.342 130.119 130.451 130.52C130.485 130.645 130.611 131.612 130.554 130.829C130.571 131.035 130.577 131.235 130.571 131.441C130.542 131.847 130.548 131.847 130.571 131.435L130.485 131.733C130.657 131.372 130.657 131.361 130.496 131.693C130.359 131.921 130.222 132.15 130.084 132.379C130.496 131.704 130.084 132.362 129.953 132.505C129.821 132.648 128.946 133.306 129.644 132.837C129.421 132.986 129.203 133.134 128.969 133.266C128.814 133.352 128.654 133.438 128.494 133.512C128.906 133.346 128.929 133.335 128.562 133.472C126.88 134.09 125.558 135.83 126.165 137.695C126.697 139.349 128.585 140.756 130.388 140.092L130.353 140.11Z" fill="#801424"/>
</svg>
