<svg width="278" height="278" viewBox="0 0 278 278" fill="none" xmlns="http://www.w3.org/2000/svg">
<circle cx="139" cy="139" r="139" fill="#801424"/>
<path d="M134.047 146.528C134.704 143.145 134.428 139.811 133.715 136.461C133 133.1 132.148 129.764 131.399 126.411C130.676 123.176 129.913 119.955 128.557 116.915C127.89 115.418 127.017 114.081 126.122 112.716C125.227 111.351 124.661 109.945 124.188 108.367C123.2 105.049 122.09 101.772 120.985 98.4946C120.436 96.8661 119.892 95.235 119.371 93.5963C119.121 92.8061 118.858 92.0184 118.638 91.2206C118.575 90.9926 118.583 90.6001 118.588 90.2024C118.626 86.7427 118.31 83.2424 118.168 79.7852C118.016 76.1203 117.865 72.4554 117.715 68.7905C117.566 65.1256 117.339 61.5772 117.384 57.9706C117.407 56.2179 117.498 54.4551 117.761 52.7227C118.024 50.9903 118.38 49.4302 118.406 47.7586C118.456 44.5774 116.904 41.8243 114.085 40.33C111.265 38.8357 107.789 38.8407 104.568 39.1978C101.743 39.5119 98.3476 39.8437 96.9443 42.7462C95.632 45.4563 96.6737 48.4652 97.2325 51.2259C98.6409 58.1935 97.5713 65.4017 97.6598 72.4453C97.7053 76.0621 97.9026 79.6839 97.6548 83.2981C97.407 86.9124 96.8482 90.1214 96.0669 93.4646C95.2856 96.8078 94.254 100.225 93.0985 103.527C92.1782 106.154 91.1087 108.717 90.0669 111.171C89.4197 112.693 88.9393 114.294 88.3071 115.829C87.7332 117.222 87.1264 118.605 86.5524 119.998C85.2553 123.138 84.1099 126.385 83.2629 129.678C82.3653 133.165 82.1049 136.762 81.9127 140.346C81.7206 143.93 81.6624 147.41 81.6498 150.945C81.6371 154.481 81.665 157.971 81.6296 161.482C81.5967 164.559 81.3742 167.639 81.4399 170.714C81.5891 177.724 80.8129 184.72 81.043 191.73C81.2503 198.141 81.7181 204.893 86.024 210.012C87.9785 212.334 90.6232 213.912 93.584 214.55C97.0682 215.303 100.734 215.341 104.284 215.346C111.301 215.356 118.626 215.541 125.513 214.008C128.6 213.322 131.126 211.666 132.148 208.558C133.131 205.564 132.82 202.079 132.891 198.977C133.217 184.233 133.543 169.49 133.867 154.75C133.93 151.877 133.913 148.993 134.102 146.126C134.231 144.173 131.197 144.18 131.068 146.126C130.876 148.99 130.896 151.877 130.833 154.75C130.754 158.263 130.679 161.775 130.6 165.288C130.443 172.372 130.287 179.454 130.13 186.538C130.052 190.109 129.973 193.678 129.892 197.249C129.854 198.977 129.816 200.704 129.779 202.431C129.748 203.822 129.779 205.248 129.511 206.618C129.27 207.846 128.823 209.064 127.794 209.85C126.765 210.635 125.316 210.972 124.021 211.217C120.739 211.838 117.387 212.058 114.057 212.172C110.727 212.286 107.083 212.327 103.602 212.304C100.31 212.284 96.8356 212.296 93.632 211.435C87.9152 209.898 85.3211 204.113 84.5474 198.703C83.6068 192.133 84.0695 185.376 84.34 178.775C84.469 175.614 84.4159 172.469 84.4412 169.308C84.4639 166.144 84.6561 162.979 84.6738 159.813C84.7092 152.984 84.6081 146.161 85 139.34C85.1946 135.957 85.5537 132.639 86.4892 129.371C87.4247 126.104 88.4867 123.154 89.7509 120.147C90.3173 118.8 90.9013 117.457 91.4525 116.102C91.9531 114.869 92.3754 113.433 92.8735 112.313C94.0341 109.697 95.0783 107.04 96.0265 104.335C98.2464 97.9957 99.943 91.446 100.575 84.7418C100.901 81.2694 100.81 77.7945 100.732 74.3119C100.653 70.8294 100.757 67.4862 100.873 64.0695C100.99 60.6908 101.061 57.2969 100.694 53.9309C100.512 52.2593 100.221 50.6155 99.8419 48.9768C99.5561 47.7408 99.2123 46.4187 99.3665 45.1397C99.6977 42.3841 103.083 42.3841 105.22 42.1688C107.986 41.8902 111.119 41.7585 113.473 43.5086C115.827 45.2587 115.437 48.3563 114.992 51.0055C114.418 54.4273 114.294 57.849 114.393 61.3113C114.595 68.327 114.959 75.3428 115.248 82.3559C115.366 85.2458 115.47 88.1357 115.528 91.0256C115.541 91.6891 115.819 92.3502 116.014 92.9808C116.272 93.8167 116.535 94.6525 116.805 95.4857C117.316 97.0636 117.844 98.6339 118.375 100.204C119.447 103.378 120.474 106.559 121.447 109.763C121.902 111.262 122.497 112.676 123.346 113.995C124.196 115.315 125.081 116.599 125.753 118.03C127.071 120.831 127.743 123.911 128.413 126.915C129.141 130.169 129.935 133.406 130.663 136.658C131.334 139.647 131.718 142.681 131.129 145.718C130.757 147.628 133.682 148.448 134.054 146.526L134.047 146.528Z" fill="#F9F5E7"/>
<path d="M130.056 153.433C130.518 150.721 130.807 147.775 128.938 145.501C127.191 143.373 124.162 143.034 121.601 142.917C115.742 142.651 109.952 143.885 104.104 143.973C102.637 143.996 101.168 143.943 99.7095 143.778C99.5451 143.761 99.3833 143.74 99.2189 143.72C99.138 143.71 99.0571 143.7 98.9737 143.69C98.5742 143.639 99.1987 143.723 98.9484 143.687C98.5616 143.631 98.1747 143.578 97.7878 143.528C96.9636 143.416 96.1368 143.307 95.3049 143.257C92.6829 143.102 89.7449 143.662 87.8713 145.66C86.86 146.739 86.3391 148.104 86.1242 149.551C85.8992 151.07 85.7778 152.605 85.7323 154.142C85.6463 157.098 85.8435 160.051 86.1166 162.994C86.3897 165.937 86.7361 168.863 86.9586 171.803C87.1836 174.749 87.2367 177.684 87.0597 180.635C86.8852 183.527 86.8397 186.455 88.1621 189.112C88.7689 190.328 89.6817 191.376 90.8068 192.136C91.932 192.896 93.353 193.276 94.736 193.4C96.1191 193.524 97.4592 193.349 98.8043 193.162C99.4364 193.073 100.068 192.972 100.701 192.876C100.981 192.833 101.302 192.742 101.588 192.747C101.214 192.742 101.429 192.767 101.548 192.754C101.616 192.747 101.684 192.736 101.752 192.729C101.96 192.704 102.167 192.683 102.374 192.663C105.186 192.407 108.01 192.698 110.802 193.061C113.593 193.423 116.483 193.879 119.35 193.919C121.907 193.955 124.736 193.777 126.986 192.427C128.154 191.726 129.037 190.723 129.512 189.444C129.783 188.72 129.838 187.904 129.853 187.137C129.869 186.369 129.866 185.652 129.874 184.91C129.896 181.856 129.919 178.799 129.944 175.744C129.993 169.612 130.038 163.481 130.086 157.349C130.096 155.875 130.109 154.398 130.119 152.924C130.124 152.129 129.416 151.369 128.602 151.404C127.724 151.445 127.156 152.073 127.085 152.924L127.075 153.038C127.009 153.833 127.821 154.593 128.592 154.558C129.469 154.517 130.038 153.889 130.109 153.038L130.119 152.924H127.085C127.039 158.846 126.994 164.767 126.948 170.686C126.926 173.637 126.903 176.585 126.88 179.536C126.867 181.033 126.857 182.527 126.845 184.024C126.84 184.741 126.834 185.457 126.827 186.174C126.824 186.514 126.827 186.853 126.817 187.195C126.812 187.367 126.807 187.537 126.794 187.709C126.789 187.785 126.781 187.861 126.774 187.937C126.746 188.256 126.847 187.646 126.764 187.982C126.728 188.129 126.7 188.276 126.658 188.423C126.635 188.497 126.609 188.568 126.584 188.638C126.508 188.871 126.625 188.535 126.64 188.512C126.572 188.613 126.529 188.742 126.465 188.846C126.402 188.95 126.309 189.051 126.258 189.158C126.395 188.861 126.42 188.96 126.314 189.077C126.276 189.117 126.24 189.16 126.202 189.201C126.116 189.292 126.028 189.381 125.934 189.464C125.894 189.502 125.848 189.538 125.808 189.573C125.714 189.657 125.633 189.639 125.917 189.492C125.793 189.555 125.682 189.659 125.565 189.735C125.368 189.859 125.166 189.971 124.956 190.072C124.903 190.097 124.85 190.12 124.797 190.148C124.516 190.285 125.07 190.042 124.872 190.118C124.746 190.166 124.622 190.216 124.496 190.259C123.985 190.439 123.457 190.571 122.923 190.667C122.807 190.687 122.688 190.705 122.569 190.725C122.316 190.769 122.688 190.71 122.708 190.708C122.64 190.713 122.572 190.725 122.503 190.733C122.134 190.776 121.765 190.809 121.396 190.832C120.716 190.875 120.033 190.89 119.35 190.88C117.98 190.86 116.615 190.746 115.254 190.594C112.519 190.287 109.8 189.821 107.052 189.621C105.689 189.522 104.321 189.489 102.958 189.578C101.596 189.667 100.245 189.895 98.8978 190.102C98.5894 190.151 98.2607 190.232 97.9497 190.242C97.9876 190.242 98.3112 190.196 98.0382 190.229C97.9674 190.237 97.8991 190.247 97.8283 190.254C97.6538 190.275 97.4794 190.295 97.3049 190.313C96.7209 190.371 96.1343 190.409 95.5477 190.401C95.2442 190.399 94.9434 190.384 94.6425 190.353C94.5767 190.346 94.5085 190.333 94.4453 190.33C94.4781 190.33 94.8169 190.391 94.554 190.343C94.3922 190.313 94.2303 190.285 94.0711 190.249C93.8157 190.191 93.5628 190.118 93.3151 190.031C93.2367 190.004 93.1608 189.973 93.085 189.945C92.8953 189.874 93.3555 190.075 93.1735 189.981C93.0243 189.905 92.8751 189.836 92.7285 189.753C92.6121 189.687 92.4958 189.616 92.3846 189.543C92.3188 189.5 92.2531 189.451 92.1874 189.406C92.0028 189.279 92.2759 189.419 92.2658 189.469C92.2708 189.441 92.0129 189.251 91.9775 189.221C91.8612 189.115 91.75 189.001 91.6438 188.884C91.5578 188.79 91.4769 188.694 91.396 188.598C91.2291 188.403 91.444 188.651 91.4592 188.682C91.4314 188.631 91.3833 188.578 91.3479 188.527C91.1735 188.279 91.0167 188.02 90.8776 187.755C90.8094 187.628 90.7462 187.499 90.6855 187.367C90.6602 187.309 90.6374 187.245 90.6071 187.192C90.6223 187.22 90.7386 187.532 90.6501 187.289C90.5489 187.018 90.4529 186.747 90.372 186.468C90.2961 186.207 90.2329 185.941 90.1798 185.673C90.1545 185.549 90.1318 185.422 90.1115 185.295C90.0989 185.212 90.0534 184.984 90.1115 185.313C90.0938 185.212 90.0862 185.108 90.0761 185.007C89.9295 183.575 90.0129 182.134 90.0989 180.701C90.1849 179.267 90.2405 177.813 90.2202 176.367C90.1798 173.523 89.927 170.686 89.6438 167.857C89.0799 162.224 88.3745 156.541 88.9965 150.88C89.0142 150.723 89.0344 150.564 89.0521 150.407C89.0951 150.034 89.0117 150.657 89.0521 150.419C89.0648 150.346 89.0749 150.27 89.085 150.196C89.1381 149.862 89.2063 149.53 89.2948 149.204C89.3404 149.041 89.3935 148.882 89.4491 148.722C89.4794 148.634 89.4921 148.469 89.4213 148.773C89.4364 148.712 89.4921 148.621 89.5173 148.57C89.578 148.449 89.6438 148.33 89.7146 148.216C89.7474 148.165 89.7778 148.114 89.8132 148.064C89.846 148.013 89.8814 147.965 89.9168 147.917L89.7879 148.082C89.9725 147.909 90.1216 147.702 90.3087 147.529C90.3543 147.489 90.3972 147.451 90.4428 147.41C90.5843 147.291 90.6248 147.37 90.3821 147.453C90.4908 147.418 90.6172 147.286 90.7158 147.223C90.9333 147.084 91.1608 146.957 91.396 146.846C91.4516 146.82 91.5072 146.795 91.5628 146.767C91.798 146.656 91.4794 146.813 91.4567 146.813C91.5628 146.82 91.7853 146.689 91.8941 146.653C92.1469 146.569 92.4023 146.499 92.6602 146.44C92.7967 146.41 92.9358 146.382 93.0723 146.357C93.133 146.347 93.1962 146.336 93.2569 146.326C93.5502 146.278 92.9029 146.359 93.224 146.331C93.8789 146.273 94.5312 146.255 95.1861 146.291C95.5552 146.309 95.9219 146.342 96.2885 146.38C96.4528 146.397 96.6147 146.415 96.779 146.435C96.8599 146.445 96.9434 146.455 97.0243 146.466C97.0799 146.473 97.4996 146.526 97.1102 146.476C97.8966 146.58 98.6829 146.699 99.4693 146.792C105.128 147.474 110.776 146.428 116.415 146.05C117.821 145.957 119.229 145.903 120.637 145.929C121.333 145.941 122.028 145.972 122.721 146.03C122.865 146.043 123.009 146.055 123.151 146.071C123.204 146.076 123.649 146.139 123.383 146.096C123.118 146.053 123.431 146.103 123.469 146.111C123.532 146.121 123.598 146.131 123.661 146.141C123.821 146.169 123.98 146.2 124.139 146.233C124.389 146.286 124.64 146.349 124.885 146.425C125.006 146.463 125.128 146.504 125.247 146.547C125.32 146.575 125.393 146.602 125.467 146.63C125.644 146.696 125.161 146.488 125.406 146.607C125.651 146.726 125.904 146.858 126.137 147.015C126.182 147.046 126.24 147.099 126.288 147.122C126.261 147.109 126.01 146.886 126.2 147.053C126.316 147.155 126.432 147.256 126.541 147.367C126.627 147.456 126.7 147.567 126.792 147.651C126.569 147.448 126.663 147.476 126.728 147.575C126.764 147.628 126.799 147.679 126.834 147.735C126.91 147.854 126.979 147.978 127.042 148.104C127.07 148.16 127.095 148.218 127.123 148.274C127.204 148.441 127.011 147.955 127.092 148.216C127.173 148.477 127.262 148.753 127.317 149.034C127.33 149.097 127.34 149.158 127.35 149.221C127.381 149.393 127.287 149.292 127.335 149.102C127.302 149.231 127.368 149.444 127.376 149.583C127.406 150.143 127.378 150.705 127.325 151.265C127.312 151.397 127.297 151.531 127.282 151.663C127.272 151.754 127.237 151.957 127.297 151.556C127.287 151.622 127.279 151.688 127.269 151.754C127.226 152.045 127.178 152.337 127.13 152.628C127.06 153.041 127.065 153.426 127.282 153.798C127.467 154.112 127.828 154.413 128.19 154.497C128.926 154.664 129.914 154.274 130.056 153.436V153.433Z" fill="#F9F5E7"/>
<path d="M122.264 170.409C127.448 168.325 129.752 161.9 127.412 156.058C125.071 150.217 118.971 147.171 113.788 149.255C108.604 151.339 106.299 157.764 108.64 163.606C110.981 169.447 117.08 172.493 122.264 170.409Z" fill="#801424" stroke="#F9F5E7" stroke-width="3" stroke-miterlimit="10"/>
<path d="M140.808 197.769C147.441 197.769 152.818 192.382 152.818 185.738C152.818 179.094 147.441 173.707 140.808 173.707C134.175 173.707 128.798 179.094 128.798 185.738C128.798 192.382 134.175 197.769 140.808 197.769Z" fill="#801424" stroke="#F9F5E7" stroke-width="3" stroke-miterlimit="10"/>
<path d="M133.252 200.846C139.606 200.846 144.757 195.687 144.757 189.322C144.757 182.958 139.606 177.798 133.252 177.798C126.899 177.798 121.748 182.958 121.748 189.322C121.748 195.687 126.899 200.846 133.252 200.846Z" fill="#801424" stroke="#F9F5E7" stroke-width="3" stroke-miterlimit="10"/>
<path d="M160.2 196.719C165.437 196.719 169.682 192.466 169.682 187.221C169.682 181.975 165.437 177.723 160.2 177.723C154.964 177.723 150.719 181.975 150.719 187.221C150.719 192.466 154.964 196.719 160.2 196.719Z" fill="#801424" stroke="#F9F5E7" stroke-width="3" stroke-miterlimit="10"/>
<path d="M126.284 182.438C132.079 182.438 136.777 177.732 136.777 171.927C136.777 166.122 132.079 161.416 126.284 161.416C120.489 161.416 115.791 166.122 115.791 171.927C115.791 177.732 120.489 182.438 126.284 182.438Z" fill="#801424" stroke="#F9F5E7" stroke-width="3" stroke-miterlimit="10"/>
<path d="M130.05 155.97C136.683 155.97 142.06 150.584 142.06 143.94C142.06 137.295 136.683 131.909 130.05 131.909C123.417 131.909 118.04 137.295 118.04 143.94C118.04 150.584 123.417 155.97 130.05 155.97Z" fill="#801424" stroke="#F9F5E7" stroke-width="3" stroke-miterlimit="10"/>
<path d="M202.989 172.768C209.622 172.768 214.999 167.381 214.999 160.737C214.999 154.093 209.622 148.706 202.989 148.706C196.356 148.706 190.979 154.093 190.979 160.737C190.979 167.381 196.356 172.768 202.989 172.768Z" fill="#801424" stroke="#F9F5E7" stroke-width="3" stroke-miterlimit="10"/>
<path d="M194.041 150.435C200.674 150.435 206.051 145.049 206.051 138.404C206.051 131.76 200.674 126.374 194.041 126.374C187.408 126.374 182.031 131.76 182.031 138.404C182.031 145.049 187.408 150.435 194.041 150.435Z" fill="#801424" stroke="#F9F5E7" stroke-width="3" stroke-miterlimit="10"/>
<path d="M166.656 141.249C173.289 141.249 178.666 135.863 178.666 129.219C178.666 122.574 173.289 117.188 166.656 117.188C160.023 117.188 154.646 122.574 154.646 129.219C154.646 135.863 160.023 141.249 166.656 141.249Z" fill="#801424" stroke="#F9F5E7" stroke-width="3" stroke-miterlimit="10"/>
<path d="M150.362 215.487C156.995 215.487 162.372 210.1 162.372 203.456C162.372 196.812 156.995 191.425 150.362 191.425C143.729 191.425 138.352 196.812 138.352 203.456C138.352 210.1 143.729 215.487 150.362 215.487Z" fill="#801424" stroke="#F9F5E7" stroke-width="3" stroke-miterlimit="10"/>
<path d="M175.786 158.59C182.419 158.59 187.796 153.204 187.796 146.56C187.796 139.915 182.419 134.529 175.786 134.529C169.153 134.529 163.776 139.915 163.776 146.56C163.776 153.204 169.153 158.59 175.786 158.59Z" fill="#801424" stroke="#F9F5E7" stroke-width="3" stroke-miterlimit="10"/>
<path d="M187.533 166.153C194.166 166.153 199.543 160.767 199.543 154.122C199.543 147.478 194.166 142.092 187.533 142.092C180.9 142.092 175.523 147.478 175.523 154.122C175.523 160.767 180.9 166.153 187.533 166.153Z" fill="#801424" stroke="#F9F5E7" stroke-width="3" stroke-miterlimit="10"/>
<path d="M177.62 198.517C184.253 198.517 189.63 193.131 189.63 186.487C189.63 179.842 184.253 174.456 177.62 174.456C170.987 174.456 165.609 179.842 165.609 186.487C165.609 193.131 170.987 198.517 177.62 198.517Z" fill="#801424" stroke="#F9F5E7" stroke-width="3" stroke-miterlimit="10"/>
<path d="M190.044 182.611C196.677 182.611 202.054 177.224 202.054 170.58C202.054 163.936 196.677 158.55 190.044 158.55C183.411 158.55 178.034 163.936 178.034 170.58C178.034 177.224 183.411 182.611 190.044 182.611Z" fill="#801424" stroke="#F9F5E7" stroke-width="3" stroke-miterlimit="10"/>
<path d="M136.216 166.59C142.849 166.59 148.226 161.203 148.226 154.559C148.226 147.915 142.849 142.528 136.216 142.528C129.583 142.528 124.206 147.915 124.206 154.559C124.206 161.203 129.583 166.59 136.216 166.59Z" fill="#801424" stroke="#F9F5E7" stroke-width="3" stroke-miterlimit="10"/>
<path d="M171.075 184.233C177.708 184.233 183.085 178.846 183.085 172.202C183.085 165.558 177.708 160.172 171.075 160.172C164.442 160.172 159.065 165.558 159.065 172.202C159.065 178.846 164.442 184.233 171.075 184.233Z" fill="#801424" stroke="#F9F5E7" stroke-width="3" stroke-miterlimit="10"/>
<path d="M147.552 181.953C154.184 181.953 159.562 176.566 159.562 169.922C159.562 163.278 154.184 157.891 147.552 157.891C140.919 157.891 135.541 163.278 135.541 169.922C135.541 176.566 140.919 181.953 147.552 181.953Z" fill="#801424" stroke="#F9F5E7" stroke-width="3" stroke-miterlimit="10"/>
<path d="M168.631 219.605C175.264 219.605 180.641 214.219 180.641 207.574C180.641 200.93 175.264 195.544 168.631 195.544C161.998 195.544 156.621 200.93 156.621 207.574C156.621 214.219 161.998 219.605 168.631 219.605Z" fill="#801424" stroke="#F9F5E7" stroke-width="3" stroke-miterlimit="10"/>
<path d="M184.986 211.768C190.851 211.768 195.605 207.005 195.605 201.13C195.605 195.255 190.851 190.493 184.986 190.493C179.121 190.493 174.367 195.255 174.367 201.13C174.367 207.005 179.121 211.768 184.986 211.768Z" fill="#801424" stroke="#F9F5E7" stroke-width="3" stroke-miterlimit="10"/>
<path d="M175.534 239C181.678 239 186.659 234.011 186.659 227.856C186.659 221.701 181.678 216.712 175.534 216.712C169.389 216.712 164.409 221.701 164.409 227.856C164.409 234.011 169.389 239 175.534 239Z" fill="#801424" stroke="#F9F5E7" stroke-width="3" stroke-miterlimit="10"/>
<path d="M186.836 225.574C192.142 225.574 196.444 221.265 196.444 215.95C196.444 210.634 192.142 206.325 186.836 206.325C181.529 206.325 177.227 210.634 177.227 215.95C177.227 221.265 181.529 225.574 186.836 225.574Z" fill="#801424" stroke="#F9F5E7" stroke-width="3" stroke-miterlimit="10"/>
<path d="M201.73 215.181C207.246 215.181 211.717 210.702 211.717 205.177C211.717 199.651 207.246 195.172 201.73 195.172C196.214 195.172 191.742 199.651 191.742 205.177C191.742 210.702 196.214 215.181 201.73 215.181Z" fill="#801424" stroke="#F9F5E7" stroke-width="3" stroke-miterlimit="10"/>
<path d="M201.208 196.064C208.33 196.064 214.103 190.281 214.103 183.147C214.103 176.013 208.33 170.23 201.208 170.23C194.087 170.23 188.313 176.013 188.313 183.147C188.313 190.281 194.087 196.064 201.208 196.064Z" fill="#801424" stroke="#F9F5E7" stroke-width="3" stroke-miterlimit="10"/>
<path d="M142.954 148.052C149.587 148.052 154.964 142.666 154.964 136.022C154.964 129.377 149.587 123.991 142.954 123.991C136.321 123.991 130.944 129.377 130.944 136.022C130.944 142.666 136.321 148.052 142.954 148.052Z" fill="#801424" stroke="#F9F5E7" stroke-width="3" stroke-miterlimit="10"/>
<path d="M138.827 133.132C144.971 133.132 149.952 128.142 149.952 121.988C149.952 115.833 144.971 110.843 138.827 110.843C132.683 110.843 127.702 115.833 127.702 121.988C127.702 128.142 132.683 133.132 138.827 133.132Z" fill="#801424" stroke="#F9F5E7" stroke-width="3" stroke-miterlimit="10"/>
<path d="M160.019 164.115C166.652 164.115 172.029 158.729 172.029 152.085C172.029 145.44 166.652 140.054 160.019 140.054C153.386 140.054 148.009 145.44 148.009 152.085C148.009 158.729 153.386 164.115 160.019 164.115Z" fill="#801424" stroke="#F9F5E7" stroke-width="3" stroke-miterlimit="10"/>
</svg>
