<svg width="43" height="64" viewBox="0 0 43 64" fill="none" xmlns="http://www.w3.org/2000/svg">
<path d="M16.6265 33.8712C16.8326 32.8054 16.7462 31.7554 16.5227 30.6999C16.2984 29.6412 16.0314 28.5905 15.7968 27.5342C15.5701 26.5154 15.3308 25.5005 14.906 24.5432C14.6968 24.0717 14.4234 23.6504 14.1428 23.2204C13.8623 22.7904 13.6848 22.3476 13.5366 21.8505C13.2267 20.8054 12.8788 19.773 12.5325 18.7406C12.3605 18.2276 12.1901 17.7138 12.0269 17.1977C11.9484 16.9487 11.866 16.7006 11.7971 16.4493C11.7772 16.3775 11.7796 16.2538 11.7812 16.1286C11.7931 15.0388 11.694 13.9362 11.6497 12.8472C11.6021 11.6927 11.5546 10.5383 11.5078 9.38384C11.461 8.2294 11.3897 7.11166 11.404 5.97557C11.4111 5.42348 11.4396 4.8682 11.5221 4.32249C11.6045 3.77678 11.7162 3.28533 11.7241 2.75877C11.74 1.75671 11.2534 0.889485 10.3698 0.418773C9.48615 -0.0519385 8.39647 -0.0503428 7.38683 0.0621493C6.50161 0.161079 5.43729 0.265593 4.99746 1.17989C4.58616 2.03355 4.91266 2.98136 5.0878 3.85098C5.52922 6.04578 5.194 8.31636 5.22174 10.5351C5.236 11.6744 5.29782 12.8153 5.22015 13.9537C5.14249 15.0922 4.96735 16.1031 4.72246 17.1562C4.47758 18.2093 4.15425 19.2855 3.79208 20.3259C3.50361 21.1532 3.16838 21.9606 2.84188 22.7337C2.639 23.2132 2.48842 23.7174 2.2903 24.2009C2.1104 24.6397 1.92021 25.0753 1.74031 25.5141C1.33376 26.5034 0.97476 27.5262 0.709275 28.5634C0.427939 29.662 0.346312 30.7949 0.286083 31.9238C0.225853 33.0527 0.207626 34.1489 0.203663 35.2626C0.199701 36.3764 0.208418 37.4758 0.197323 38.5815C0.187021 39.5509 0.117281 40.521 0.137886 41.4896C0.184643 43.6979 -0.0586522 45.9015 0.0134648 48.1099C0.0784493 50.1291 0.225061 52.2561 1.57468 53.8685C2.18728 54.6001 3.01622 55.0972 3.94424 55.2982C5.03629 55.5352 6.18541 55.5471 7.29807 55.5487C9.49724 55.5519 11.7931 55.6101 13.9519 55.1275C14.9195 54.9113 15.7112 54.3895 16.0314 53.4106C16.3396 52.4675 16.2422 51.3698 16.2643 50.3924C16.3666 45.7483 16.4688 41.1042 16.5703 36.461C16.5901 35.5562 16.5845 34.6475 16.644 33.7444C16.6844 33.1293 15.7334 33.1317 15.693 33.7444C15.6327 34.6467 15.6391 35.5562 15.6193 36.461C15.5947 37.5675 15.5709 38.6741 15.5463 39.7807C15.4972 42.0122 15.4481 44.2429 15.3989 46.4743C15.3744 47.5993 15.3498 48.7234 15.3244 49.8483C15.3126 50.3924 15.3007 50.9365 15.2888 51.4806C15.2793 51.9187 15.2888 52.3678 15.2048 52.7994C15.1295 53.1864 14.9892 53.5701 14.6667 53.8175C14.3441 54.0648 13.89 54.1709 13.4843 54.2483C12.4556 54.4437 11.4048 54.5131 10.3611 54.549C9.31734 54.585 8.17536 54.5977 7.0841 54.5905C6.05227 54.5842 4.96338 54.5881 3.95929 54.3169C2.16746 53.8326 1.35436 52.0104 1.11186 50.3063C0.817054 48.2367 0.96208 46.1081 1.04688 44.029C1.08729 43.0334 1.07065 42.0425 1.07858 41.0468C1.08571 40.0503 1.14594 39.0531 1.15149 38.0558C1.16258 35.9049 1.13088 33.7556 1.25372 31.607C1.31474 30.5411 1.42727 29.496 1.7205 28.4668C2.01372 27.4376 2.34657 26.5082 2.74281 25.5612C2.92033 25.1367 3.1034 24.7139 3.27616 24.2871C3.43308 23.8985 3.56542 23.4462 3.72154 23.0935C4.0853 22.2694 4.4126 21.4325 4.70978 20.5804C5.40559 18.5835 5.93736 16.5203 6.13548 14.4085C6.23771 13.3147 6.20918 12.2201 6.18462 11.1231C6.16005 10.0261 6.19254 8.97297 6.229 7.89671C6.26545 6.83242 6.28764 5.76335 6.17273 4.70305C6.11567 4.17649 6.02453 3.65871 5.90566 3.14252C5.81611 2.75319 5.70833 2.33673 5.75667 1.93383C5.86049 1.0658 6.92164 1.0658 7.59129 0.997989C8.45828 0.910229 9.44018 0.868742 10.178 1.42003C10.9158 1.97133 10.7938 2.94706 10.6543 3.78157C10.4744 4.85942 10.4356 5.93727 10.4665 7.02789C10.5299 9.23784 10.644 11.4478 10.7343 13.6569C10.7716 14.5673 10.8041 15.4776 10.8223 16.3879C10.8263 16.5969 10.9134 16.8051 10.9744 17.0038C11.0553 17.2671 11.1377 17.5304 11.2225 17.7928C11.3826 18.2899 11.5482 18.7845 11.7146 19.2792C12.0507 20.2788 12.3724 21.2809 12.6775 22.2901C12.8202 22.7624 13.0064 23.2076 13.2727 23.6233C13.539 24.0389 13.8163 24.4434 14.0271 24.8942C14.44 25.7766 14.6508 26.7467 14.8608 27.6929C15.0891 28.7181 15.3379 29.7377 15.5662 30.7621C15.7762 31.7036 15.8966 32.6594 15.712 33.6159C15.5955 34.2175 16.5124 34.476 16.6289 33.8704L16.6265 33.8712Z" fill="#F9F5E7"/>
<path d="M15.3756 36.047C15.5206 35.1925 15.611 34.2647 15.0253 33.5482C14.4777 32.8781 13.5283 32.7712 12.7255 32.7345C10.8893 32.6507 9.07449 33.0392 7.24145 33.0672C6.7818 33.0743 6.32137 33.0576 5.8641 33.0057C5.81258 33.0001 5.76187 32.9938 5.71035 32.9874C5.68499 32.9842 5.65963 32.981 5.63348 32.9778C5.50827 32.9618 5.70401 32.9882 5.62556 32.977C5.5043 32.9594 5.38305 32.9427 5.2618 32.9267C5.00345 32.8916 4.7443 32.8573 4.48357 32.8414C3.66176 32.7927 2.74088 32.969 2.15364 33.5985C1.83664 33.9384 1.67339 34.3684 1.60603 34.8239C1.53549 35.3026 1.49745 35.7861 1.48319 36.2704C1.45625 37.2014 1.51806 38.1317 1.60365 39.0588C1.68924 39.9858 1.79781 40.9073 1.86755 41.8336C1.93808 42.7614 1.95472 43.6861 1.89925 44.6156C1.84457 45.5267 1.8303 46.4489 2.24478 47.2858C2.43498 47.6688 2.72107 47.9991 3.07373 48.2384C3.42639 48.4778 3.87177 48.5975 4.30526 48.6365C4.73876 48.6756 5.15878 48.6206 5.58038 48.5616C5.77851 48.5336 5.97663 48.5017 6.17475 48.4714C6.26272 48.4578 6.36337 48.4291 6.45292 48.4307C6.33563 48.4291 6.40299 48.4371 6.44024 48.4331C6.46164 48.4307 6.48303 48.4275 6.50443 48.4251C6.56942 48.4172 6.6344 48.4108 6.69938 48.4044C7.58064 48.3238 8.46585 48.4156 9.34077 48.5296C10.2157 48.6437 11.1215 48.7873 12.0202 48.8001C12.8214 48.8113 13.7082 48.7554 14.4135 48.3302C14.7797 48.1092 15.0562 47.7933 15.2052 47.3904C15.29 47.1622 15.3075 46.9053 15.3122 46.6635C15.317 46.4218 15.3162 46.196 15.3186 45.9623C15.3257 45.0001 15.3328 44.0371 15.3407 43.075C15.3558 41.1435 15.3701 39.2119 15.3851 37.2804C15.3883 36.8161 15.3923 36.351 15.3954 35.8866C15.397 35.6361 15.1751 35.3968 14.9199 35.4079C14.6449 35.4207 14.4666 35.6186 14.4444 35.8866L14.4413 35.9225C14.4207 36.1731 14.675 36.4124 14.9168 36.4012C15.1918 36.3885 15.3701 36.1906 15.3923 35.9225L15.3954 35.8866H14.4444C14.4302 37.7519 14.4159 39.6172 14.4016 41.4817C14.3945 42.4112 14.3874 43.3398 14.3802 44.2693C14.3763 44.7408 14.3731 45.2115 14.3691 45.683C14.3676 45.9088 14.366 46.1346 14.3636 46.3604C14.3628 46.4673 14.3636 46.5742 14.3604 46.6819C14.3588 46.7361 14.3573 46.7896 14.3533 46.8439C14.3517 46.8678 14.3493 46.8917 14.347 46.9157C14.3382 47.0162 14.3699 46.8239 14.3438 46.93C14.3327 46.9763 14.324 47.0226 14.3105 47.0688C14.3034 47.092 14.2954 47.1143 14.2875 47.1367C14.2637 47.2101 14.3002 47.1039 14.3049 47.0968C14.2836 47.1287 14.2701 47.1694 14.2503 47.2021C14.2305 47.2348 14.2011 47.2667 14.1853 47.3002C14.2281 47.2069 14.236 47.238 14.2027 47.2747C14.1908 47.2874 14.1797 47.301 14.1678 47.3138C14.1409 47.3425 14.1132 47.3704 14.0838 47.3967C14.0712 47.4087 14.0569 47.4199 14.0442 47.431C14.0149 47.4574 13.9895 47.4518 14.0783 47.4055C14.0395 47.4255 14.0046 47.4582 13.9681 47.4821C13.9063 47.5212 13.8429 47.5563 13.7771 47.5882C13.7605 47.5962 13.7439 47.6034 13.7272 47.6122C13.6393 47.6552 13.8128 47.5786 13.751 47.6026C13.7114 47.6177 13.6725 47.6337 13.6329 47.6473C13.4728 47.7039 13.3072 47.7454 13.14 47.7757C13.1035 47.7821 13.0663 47.7877 13.029 47.7941C12.9498 47.8076 13.0663 47.7893 13.0726 47.7885C13.0512 47.7901 13.0298 47.7941 13.0084 47.7964C12.8927 47.81 12.777 47.8204 12.6613 47.8276C12.4481 47.8411 12.2342 47.8459 12.0202 47.8427C11.5907 47.8363 11.1627 47.8004 10.7363 47.7526C9.87887 47.656 9.02694 47.5092 8.1655 47.4462C7.73834 47.4151 7.30961 47.4047 6.88245 47.4326C6.4553 47.4606 6.03211 47.5324 5.60971 47.5978C5.51302 47.6129 5.41 47.6385 5.31252 47.6417C5.32441 47.6417 5.42585 47.6273 5.34026 47.6377C5.31807 47.6401 5.29667 47.6433 5.27448 47.6457C5.2198 47.652 5.16512 47.6584 5.11044 47.664C4.92737 47.6824 4.74351 47.6943 4.55965 47.6919C4.46455 47.6911 4.37025 47.6864 4.27594 47.6768C4.25533 47.6744 4.23394 47.6704 4.21412 47.6696C4.22443 47.6696 4.33062 47.6887 4.2482 47.6736C4.19748 47.664 4.14676 47.6552 4.09684 47.6441C4.01679 47.6257 3.93754 47.6026 3.85988 47.5755C3.83531 47.5667 3.81154 47.5571 3.78776 47.5483C3.72833 47.526 3.87256 47.589 3.8155 47.5595C3.76874 47.5356 3.72199 47.514 3.67602 47.4877C3.63957 47.467 3.60311 47.4446 3.56824 47.4215C3.54764 47.4079 3.52703 47.3927 3.50643 47.3784C3.44858 47.3385 3.53416 47.3824 3.53099 47.3983C3.53258 47.3896 3.45174 47.3297 3.44065 47.3201C3.4042 47.2866 3.36933 47.2507 3.33604 47.214C3.3091 47.1845 3.28374 47.1542 3.25838 47.1239C3.20607 47.0625 3.27343 47.1406 3.27819 47.1502C3.26947 47.1343 3.25441 47.1175 3.24332 47.1015C3.18864 47.0234 3.1395 46.942 3.09592 46.8582C3.07452 46.8183 3.05471 46.7776 3.03569 46.7361C3.02776 46.7178 3.02063 46.6979 3.01112 46.6811C3.01587 46.6899 3.05233 46.788 3.02459 46.7114C2.99289 46.626 2.96278 46.5407 2.93742 46.4529C2.91364 46.3707 2.89383 46.287 2.87719 46.2024C2.86926 46.1633 2.86213 46.1234 2.85579 46.0835C2.85183 46.0572 2.83756 45.9854 2.85579 46.0891C2.85024 46.0572 2.84786 46.0245 2.84469 45.9926C2.79873 45.5418 2.82488 45.0879 2.85183 44.6363C2.87877 44.1847 2.89621 43.7268 2.88987 43.2712C2.87719 42.3753 2.79794 41.4817 2.70918 40.5906C2.53245 38.8162 2.31135 37.0259 2.5063 35.2428C2.51185 35.1933 2.51819 35.1431 2.52373 35.0936C2.53721 34.9763 2.51105 35.1726 2.52373 35.0976C2.5277 35.0745 2.53087 35.0505 2.53404 35.0274C2.55068 34.9221 2.57208 34.8176 2.59981 34.7146C2.61408 34.6636 2.63072 34.6133 2.64816 34.5631C2.65767 34.5351 2.66163 34.4833 2.63944 34.579C2.64419 34.5599 2.66163 34.5311 2.66955 34.5152C2.68857 34.4769 2.70918 34.4394 2.73137 34.4035C2.74167 34.3875 2.75118 34.3716 2.76228 34.3556C2.77258 34.3397 2.78367 34.3245 2.79477 34.3094L2.75435 34.3612C2.8122 34.307 2.85896 34.2415 2.9176 34.1873C2.93187 34.1745 2.94534 34.1626 2.95961 34.1498C3.00399 34.1123 3.01667 34.137 2.94059 34.1634C2.97466 34.1522 3.01429 34.1107 3.0452 34.0908C3.11335 34.0469 3.18467 34.007 3.25838 33.9719C3.27581 33.9639 3.29325 33.9559 3.31068 33.9471C3.38438 33.912 3.28453 33.9615 3.2774 33.9615C3.31068 33.9639 3.38042 33.9224 3.4145 33.9112C3.49375 33.8849 3.57379 33.8626 3.65462 33.8442C3.69742 33.8347 3.74101 33.8259 3.7838 33.8179C3.80282 33.8147 3.82263 33.8115 3.84165 33.8083C3.93358 33.7932 3.7307 33.8187 3.83135 33.8099C4.03661 33.7916 4.24107 33.786 4.44633 33.7972C4.56203 33.8027 4.67694 33.8131 4.79185 33.8251C4.84336 33.8307 4.89408 33.8362 4.9456 33.8426C4.97096 33.8458 4.99711 33.849 5.02247 33.8522C5.0399 33.8546 5.17146 33.8714 5.04941 33.8554C5.29588 33.8881 5.54234 33.9256 5.78881 33.9551C7.56241 34.1697 9.33284 33.8402 11.1001 33.7214C11.5407 33.6918 11.9821 33.6751 12.4236 33.6831C12.6415 33.6871 12.8594 33.6966 13.0766 33.715C13.1218 33.719 13.1669 33.723 13.2113 33.7277C13.228 33.7293 13.3674 33.7493 13.2842 33.7357C13.201 33.7222 13.2993 33.7381 13.3112 33.7405C13.331 33.7437 13.3516 33.7469 13.3714 33.7501C13.4213 33.7589 13.4712 33.7684 13.5212 33.7788C13.5996 33.7956 13.6781 33.8155 13.755 33.8394C13.793 33.8514 13.831 33.8642 13.8683 33.8777C13.8913 33.8865 13.9143 33.8953 13.9372 33.9041C13.9927 33.9248 13.8413 33.8594 13.9182 33.8969C13.9951 33.9344 14.0743 33.9759 14.1472 34.0253C14.1615 34.0349 14.1797 34.0517 14.1948 34.0588C14.1861 34.0548 14.1076 33.9846 14.1671 34.0373C14.2035 34.0692 14.24 34.1011 14.274 34.1362C14.301 34.1642 14.324 34.1993 14.3525 34.2256C14.2828 34.1618 14.3121 34.1705 14.3327 34.2016C14.3438 34.2184 14.3549 34.2344 14.366 34.2519C14.3897 34.2894 14.4111 34.3285 14.431 34.3684C14.4397 34.3859 14.4476 34.4043 14.4563 34.4218C14.4817 34.4745 14.4214 34.3213 14.4468 34.4035C14.4722 34.4857 14.4999 34.5726 14.5173 34.6612C14.5213 34.6811 14.5245 34.7003 14.5276 34.7202C14.5372 34.7745 14.5078 34.7426 14.5229 34.6827C14.5126 34.7234 14.5332 34.7904 14.5356 34.8343C14.5451 35.0106 14.5364 35.1878 14.5197 35.3641C14.5158 35.4056 14.511 35.4478 14.5062 35.4893C14.5031 35.518 14.492 35.5819 14.511 35.4558C14.5078 35.4766 14.5055 35.4973 14.5023 35.518C14.4888 35.6098 14.4738 35.7015 14.4587 35.7933C14.4365 35.9233 14.4381 36.0446 14.5062 36.1619C14.5641 36.2608 14.6774 36.3558 14.7907 36.3821C15.0214 36.4347 15.3312 36.3119 15.3756 36.0478V36.047Z" fill="#F9F5E7"/>
<path d="M12.9334 41.3948C14.5581 40.7382 15.2805 38.7143 14.5468 36.8742C13.8131 35.0341 11.9013 34.0746 10.2766 34.7312C8.65182 35.3877 7.92947 37.4116 8.66314 39.2517C9.39681 41.0918 11.3087 42.0513 12.9334 41.3948Z" fill="#801424" stroke="#F9F5E7" stroke-miterlimit="10"/>
<path d="M18.7455 50.0129C20.8245 50.0129 22.5099 48.3162 22.5099 46.2232C22.5099 44.1303 20.8245 42.4336 18.7455 42.4336C16.6666 42.4336 14.9812 44.1303 14.9812 46.2232C14.9812 48.3162 16.6666 50.0129 18.7455 50.0129Z" fill="#801424" stroke="#F9F5E7" stroke-miterlimit="10"/>
<path d="M16.3773 50.9808C18.3688 50.9808 19.9832 49.3556 19.9832 47.3508C19.9832 45.3459 18.3688 43.7207 16.3773 43.7207C14.3859 43.7207 12.7715 45.3459 12.7715 47.3508C12.7715 49.3556 14.3859 50.9808 16.3773 50.9808Z" fill="#801424" stroke="#F9F5E7" stroke-miterlimit="10"/>
<path d="M24.8237 49.6809C26.465 49.6809 27.7955 48.3414 27.7955 46.6891C27.7955 45.0367 26.465 43.6973 24.8237 43.6973C23.1824 43.6973 21.8518 45.0367 21.8518 46.6891C21.8518 48.3414 23.1824 49.6809 24.8237 49.6809Z" fill="#801424" stroke="#F9F5E7" stroke-miterlimit="10"/>
<path d="M14.1931 45.1824C16.0095 45.1824 17.482 43.7001 17.482 41.8715C17.482 40.0429 16.0095 38.5605 14.1931 38.5605C12.3768 38.5605 10.9043 40.0429 10.9043 41.8715C10.9043 43.7001 12.3768 45.1824 14.1931 45.1824Z" fill="#801424" stroke="#F9F5E7" stroke-miterlimit="10"/>
<path d="M15.3737 36.8449C17.4527 36.8449 19.1381 35.1482 19.1381 33.0553C19.1381 30.9623 17.4527 29.2656 15.3737 29.2656C13.2947 29.2656 11.6094 30.9623 11.6094 33.0553C11.6094 35.1482 13.2947 36.8449 15.3737 36.8449Z" fill="#801424" stroke="#F9F5E7" stroke-miterlimit="10"/>
<path d="M38.2353 42.1379C40.3143 42.1379 41.9996 40.4412 41.9996 38.3482C41.9996 36.2553 40.3143 34.5586 38.2353 34.5586C36.1563 34.5586 34.4709 36.2553 34.4709 38.3482C34.4709 40.4412 36.1563 42.1379 38.2353 42.1379Z" fill="#801424" stroke="#F9F5E7" stroke-miterlimit="10"/>
<path d="M35.4306 35.1027C37.5096 35.1027 39.195 33.406 39.195 31.3131C39.195 29.2201 37.5096 27.5234 35.4306 27.5234C33.3516 27.5234 31.6663 29.2201 31.6663 31.3131C31.6663 33.406 33.3516 35.1027 35.4306 35.1027Z" fill="#801424" stroke="#F9F5E7" stroke-miterlimit="10"/>
<path d="M26.8471 32.2082C28.9261 32.2082 30.6115 30.5115 30.6115 28.4185C30.6115 26.3256 28.9261 24.6289 26.8471 24.6289C24.7681 24.6289 23.0828 26.3256 23.0828 28.4185C23.0828 30.5115 24.7681 32.2082 26.8471 32.2082Z" fill="#801424" stroke="#F9F5E7" stroke-miterlimit="10"/>
<path d="M21.7402 55.5929C23.8192 55.5929 25.5045 53.8963 25.5045 51.8033C25.5045 49.7103 23.8192 48.0137 21.7402 48.0137C19.6612 48.0137 17.9758 49.7103 17.9758 51.8033C17.9758 53.8963 19.6612 55.5929 21.7402 55.5929Z" fill="#801424" stroke="#F9F5E7" stroke-miterlimit="10"/>
<path d="M29.7087 37.6711C31.7877 37.6711 33.473 35.9744 33.473 33.8814C33.473 31.7885 31.7877 30.0918 29.7087 30.0918C27.6297 30.0918 25.9443 31.7885 25.9443 33.8814C25.9443 35.9744 27.6297 37.6711 29.7087 37.6711Z" fill="#801424" stroke="#F9F5E7" stroke-miterlimit="10"/>
<path d="M33.3908 40.0539C35.4698 40.0539 37.1552 38.3572 37.1552 36.2642C37.1552 34.1713 35.4698 32.4746 33.3908 32.4746C31.3118 32.4746 29.6265 34.1713 29.6265 36.2642C29.6265 38.3572 31.3118 40.0539 33.3908 40.0539Z" fill="#801424" stroke="#F9F5E7" stroke-miterlimit="10"/>
<path d="M30.2836 50.2472C32.3626 50.2472 34.048 48.5506 34.048 46.4576C34.048 44.3646 32.3626 42.668 30.2836 42.668C28.2046 42.668 26.5193 44.3646 26.5193 46.4576C26.5193 48.5506 28.2046 50.2472 30.2836 50.2472Z" fill="#801424" stroke="#F9F5E7" stroke-miterlimit="10"/>
<path d="M34.1777 45.2375C36.2567 45.2375 37.942 43.5408 37.942 41.4478C37.942 39.3549 36.2567 37.6582 34.1777 37.6582C32.0987 37.6582 30.4133 39.3549 30.4133 41.4478C30.4133 43.5408 32.0987 45.2375 34.1777 45.2375Z" fill="#801424" stroke="#F9F5E7" stroke-miterlimit="10"/>
<path d="M17.3063 40.1906C19.3853 40.1906 21.0707 38.4939 21.0707 36.401C21.0707 34.308 19.3853 32.6113 17.3063 32.6113C15.2273 32.6113 13.542 34.308 13.542 36.401C13.542 38.4939 15.2273 40.1906 17.3063 40.1906Z" fill="#801424" stroke="#F9F5E7" stroke-miterlimit="10"/>
<path d="M28.2324 45.7492C30.3114 45.7492 31.9967 44.0525 31.9967 41.9595C31.9967 39.8666 30.3114 38.1699 28.2324 38.1699C26.1534 38.1699 24.468 39.8666 24.468 41.9595C24.468 44.0525 26.1534 45.7492 28.2324 45.7492Z" fill="#801424" stroke="#F9F5E7" stroke-miterlimit="10"/>
<path d="M20.8593 45.0304C22.9383 45.0304 24.6237 43.3338 24.6237 41.2408C24.6237 39.1478 22.9383 37.4512 20.8593 37.4512C18.7803 37.4512 17.095 39.1478 17.095 41.2408C17.095 43.3338 18.7803 45.0304 20.8593 45.0304Z" fill="#801424" stroke="#F9F5E7" stroke-miterlimit="10"/>
<path d="M27.4663 56.8898C29.5452 56.8898 31.2306 55.1931 31.2306 53.1002C31.2306 51.0072 29.5452 49.3105 27.4663 49.3105C25.3873 49.3105 23.7019 51.0072 23.7019 53.1002C23.7019 55.1931 25.3873 56.8898 27.4663 56.8898Z" fill="#801424" stroke="#F9F5E7" stroke-miterlimit="10"/>
<path d="M32.5924 54.4224C34.4307 54.4224 35.9209 52.9221 35.9209 51.0715C35.9209 49.2209 34.4307 47.7207 32.5924 47.7207C30.7541 47.7207 29.2639 49.2209 29.2639 51.0715C29.2639 52.9221 30.7541 54.4224 32.5924 54.4224Z" fill="#801424" stroke="#F9F5E7" stroke-miterlimit="10"/>
<path d="M29.6298 62.9993C31.5556 62.9993 33.1168 61.4276 33.1168 59.4889C33.1168 57.5502 31.5556 55.9785 29.6298 55.9785C27.704 55.9785 26.1428 57.5502 26.1428 59.4889C26.1428 61.4276 27.704 62.9993 29.6298 62.9993Z" fill="#801424" stroke="#F9F5E7" stroke-miterlimit="10"/>
<path d="M33.1721 58.7704C34.8353 58.7704 36.1836 57.4131 36.1836 55.7387C36.1836 54.0644 34.8353 52.707 33.1721 52.707C31.5089 52.707 30.1606 54.0644 30.1606 55.7387C30.1606 57.4131 31.5089 58.7704 33.1721 58.7704Z" fill="#801424" stroke="#F9F5E7" stroke-miterlimit="10"/>
<path d="M37.8406 55.4981C39.5694 55.4981 40.9709 54.0871 40.9709 52.3467C40.9709 50.6062 39.5694 49.1953 37.8406 49.1953C36.1117 49.1953 34.7102 50.6062 34.7102 52.3467C34.7102 54.0871 36.1117 55.4981 37.8406 55.4981Z" fill="#801424" stroke="#F9F5E7" stroke-miterlimit="10"/>
<path d="M37.677 49.4756C39.9092 49.4756 41.7187 47.6539 41.7187 45.4068C41.7187 43.1596 39.9092 41.3379 37.677 41.3379C35.4448 41.3379 33.6353 43.1596 33.6353 45.4068C33.6353 47.6539 35.4448 49.4756 37.677 49.4756Z" fill="#801424" stroke="#F9F5E7" stroke-miterlimit="10"/>
<path d="M19.4182 34.3507C21.4971 34.3507 23.1825 32.6541 23.1825 30.5611C23.1825 28.4682 21.4971 26.7715 19.4182 26.7715C17.3392 26.7715 15.6538 28.4682 15.6538 30.5611C15.6538 32.6541 17.3392 34.3507 19.4182 34.3507Z" fill="#801424" stroke="#F9F5E7" stroke-miterlimit="10"/>
<path d="M18.1247 29.6516C20.0505 29.6516 21.6116 28.08 21.6116 26.1413C21.6116 24.2025 20.0505 22.6309 18.1247 22.6309C16.1989 22.6309 14.6377 24.2025 14.6377 26.1413C14.6377 28.08 16.1989 29.6516 18.1247 29.6516Z" fill="#801424" stroke="#F9F5E7" stroke-miterlimit="10"/>
<path d="M24.7668 39.4113C26.8458 39.4113 28.5311 37.7146 28.5311 35.6217C28.5311 33.5287 26.8458 31.832 24.7668 31.832C22.6878 31.832 21.0024 33.5287 21.0024 35.6217C21.0024 37.7146 22.6878 39.4113 24.7668 39.4113Z" fill="#801424" stroke="#F9F5E7" stroke-miterlimit="10"/>
</svg>
