<svg width="195" height="182" viewBox="0 0 195 182" fill="none" xmlns="http://www.w3.org/2000/svg">
<path d="M35.4484 2.55219C30.2983 2.45454 28.9185 2.66258 23.7684 2.56493C22.6899 2.5437 21.4289 2.60738 20.8048 3.48626C20.2274 4.29295 20.4736 5.40109 20.7284 6.36063C24.8638 21.9086 25.8233 38.2887 23.5306 54.2146C20.9619 72.0765 14.4065 89.085 7.78307 105.873C6.49236 109.146 5.18892 112.441 4.51809 115.893C3.90245 119.077 3.83027 122.333 3.62223 125.569C2.64995 140.582 -1.34955 155.777 1.92393 170.463C2.1532 171.487 2.45465 172.565 3.24011 173.257C4.02983 173.949 5.14221 174.111 6.18667 174.229C18.5248 175.656 30.9861 176.034 43.3838 175.35C48.0159 175.096 53.3825 174.242 55.6497 170.196C56.847 168.06 56.8683 165.483 56.8598 163.033C56.8301 154.801 56.8003 146.564 56.7664 138.332C56.7451 132.158 56.7154 125.925 55.3525 119.901C53.7561 112.836 50.3935 106.318 47.6592 99.6144C37.8006 75.4306 36.1405 48.7418 36.1278 22.6261C36.1278 18.7837 36.1745 14.8521 37.4821 11.239C38.0383 9.70629 38.8238 8.1948 38.7983 6.56443C38.7729 4.93406 37.0576 2.36113 35.4399 2.55644L35.4484 2.55219Z" fill="#801424"/>
<path d="M35.4487 1.91844C32.7059 1.86749 29.9674 1.93967 27.2289 1.9524C25.7301 1.9609 24.1889 1.81229 22.7029 1.9609C21.5268 2.07553 20.3423 2.56804 19.9559 3.78657C19.5143 5.17918 20.1894 6.77983 20.5248 8.12149C20.9664 9.87074 21.3655 11.6327 21.7221 13.4032C22.4524 16.9951 23.0171 20.6168 23.4119 24.2596C24.9659 38.6442 23.7941 53.101 20.3423 67.1333C16.9372 80.9914 11.613 94.2169 6.47137 107.493C5.1849 110.814 4.06402 114.168 3.59274 117.709C3.12146 121.241 3.0875 124.82 2.77756 128.366C2.14919 135.579 0.981602 142.733 0.391441 149.947C-0.185982 156.94 -0.334583 164.297 1.44014 171.146C1.7798 172.462 2.40393 173.689 3.69039 174.288C5.06602 174.929 6.74734 174.937 8.23336 175.094C11.9144 175.485 15.6082 175.782 19.3063 175.986C26.7576 176.398 34.2301 176.428 41.6857 176.075C46.6235 175.842 52.9751 175.544 55.9684 170.917C57.7262 168.199 57.5139 164.756 57.5011 161.661C57.4884 157.946 57.4714 154.226 57.4587 150.511C57.4332 143.158 57.6582 135.745 57.1657 128.4C56.9279 124.85 56.4439 121.313 55.5141 117.874C54.6098 114.533 53.3445 111.306 51.9986 108.122C49.2686 101.66 46.4749 95.2911 44.4284 88.5701C40.361 75.2257 38.391 61.3378 37.4866 47.4414C37.0323 40.5039 36.8455 33.5493 36.7903 26.5948C36.7648 23.143 36.6332 19.6445 37.0238 16.2097C37.2276 14.4179 37.6225 12.6602 38.2678 10.9789C38.8283 9.52259 39.5586 7.98562 39.4312 6.38073C39.2826 4.47863 37.6098 1.79531 35.4487 1.91844C34.6335 1.96514 34.6292 3.23887 35.4487 3.19217C36.6587 3.11999 37.5673 4.5593 37.9409 5.54856C38.4929 7.01335 37.8603 8.54606 37.321 9.92169C36.094 13.0423 35.627 16.2309 35.5293 19.5723C35.3383 26.3018 35.5421 33.0781 35.8096 39.8033C36.3403 53.118 37.6607 66.4582 40.6709 79.4587C42.1697 85.9207 44.0888 92.2894 46.5216 98.4585C48.9969 104.742 52.126 110.788 54.0238 117.293C55.9896 124.031 56.1043 131.036 56.134 137.999C56.1637 145.255 56.1892 152.515 56.2147 159.771C56.2274 162.926 56.7199 166.701 55.2424 169.613C54.0451 171.965 51.6675 173.226 49.2092 173.893C46.4791 174.627 43.6302 174.717 40.8238 174.84C37.2361 174.997 33.6485 175.06 30.0565 175.039C22.8218 174.997 15.587 174.593 8.39045 173.833C6.96812 173.685 4.84099 173.791 3.68615 172.802C2.5313 171.812 2.39544 169.745 2.14494 168.356C1.51657 164.879 1.28305 161.338 1.29154 157.81C1.30428 150.868 2.24684 143.973 3.0875 137.095C3.51207 133.643 3.91542 130.183 4.17441 126.714C4.4334 123.245 4.45039 119.458 5.15943 115.9C5.81752 112.601 7.04454 109.455 8.27581 106.334C9.50708 103.214 10.7851 99.9572 12.0121 96.7559C14.4831 90.3024 16.8395 83.7979 18.8647 77.1872C22.8982 64.0339 25.4287 50.4899 25.3735 36.6997C25.3438 29.8046 24.7239 22.9095 23.5266 16.1163C22.9279 12.7239 22.1467 9.38672 21.3018 6.04956C21.1235 5.34901 20.8475 4.36399 21.3952 3.7526C21.8495 3.24311 22.6647 3.2049 23.2931 3.19217C24.7621 3.16244 26.2354 3.23038 27.7044 3.21339C30.2858 3.18792 32.863 3.13272 35.4444 3.17943C36.2638 3.19641 36.2638 1.92268 35.4444 1.9057L35.4487 1.91844Z" fill="#801424"/>
<path d="M191.443 109.907C192.555 104.481 190.891 99.8784 189.681 94.4735C189.366 93.0767 189.052 91.6756 188.742 90.2787C187.834 86.2155 186.891 82.0717 184.688 78.5137C183.94 77.3037 183.049 76.1701 182.433 74.8921C181.979 73.9495 181.677 72.939 181.38 71.937C179.525 65.6788 177.427 60.274 175.572 54.0115L175.614 52.9458C175.254 44.2165 174.893 35.483 174.532 26.7537C174.362 22.682 174.196 18.5806 174.825 14.5514C175.237 11.9148 175.963 9.0956 174.808 6.67551C173.789 4.5399 171.462 3.21947 169.089 2.76517C166.715 2.31087 164.27 2.59109 161.871 2.87556C160.156 3.07936 158.292 3.35109 157.116 4.58236C155.252 6.52691 156.08 9.61358 156.683 12.2077C158.288 19.1411 157.362 26.3546 157.345 33.462C157.332 37.6059 157.634 41.7497 157.362 45.8851C156.729 55.455 153.634 65.0759 149.983 73.9793L149.469 74.977C147.75 80.0931 145.958 83.1968 144.238 88.3129C143.491 90.542 142.74 92.7752 142.251 95.0722C141.589 98.1843 141.419 101.373 141.249 104.549C140.744 113.945 141.266 123.841 140.765 133.242V133.866C141.033 141.635 140.124 148.501 140.392 156.266C140.528 160.291 140.676 164.376 141.963 168.205C143.245 172.031 145.839 175.635 149.63 177.228C151.291 177.928 153.103 178.217 154.904 178.399C158.606 178.777 162.338 178.743 166.062 178.705C171.628 178.65 177.228 178.595 182.709 177.639C184.654 177.3 186.696 176.786 188.072 175.402C189.897 173.568 190.059 170.749 190.118 168.193C190.543 149.108 190.963 130.023 191.387 110.943L191.455 109.907H191.443Z" fill="#801424"/>
<path d="M193.896 110.589C194.605 106.963 194.325 103.414 193.556 99.8219C192.788 96.2299 191.956 93.0159 191.192 89.6066C190.427 86.1972 189.65 83.0426 188.287 79.9305C187.629 78.4275 186.784 77.0646 185.876 75.7017C184.967 74.3388 184.394 73.1288 183.923 71.5663C182.895 68.1443 181.762 64.7646 180.615 61.3808C180.055 59.7249 179.499 58.0691 178.968 56.4047C178.713 55.6108 178.526 54.7659 178.216 53.9932C177.907 53.2204 178.093 54.2904 178.119 53.7851C178.132 53.5643 178.14 53.3436 178.144 53.1185C178.178 51.4967 178.021 49.8535 177.957 48.2317L177.728 42.6442C177.575 38.9207 177.418 35.1929 177.265 31.4694C177.113 27.7459 176.879 24.1327 176.917 20.4687C176.934 18.7788 177.006 17.0551 177.244 15.3992C177.499 13.6287 177.907 11.8668 177.957 10.0708C178.059 6.48738 176.336 3.29032 173.173 1.5623C170.009 -0.165724 166.464 -0.178462 163.004 0.199411C159.769 0.551809 155.922 0.942419 154.249 4.21165C152.657 7.32804 153.782 10.661 154.415 13.8623C155.761 20.6767 154.703 27.8945 154.784 34.8405C154.827 38.5216 155.035 42.2027 154.793 45.8838C154.572 49.2931 154.016 52.5921 153.234 55.9547C152.453 59.3173 151.396 62.8286 150.22 66.187C149.634 67.8598 149.014 69.5156 148.365 71.163C148.203 71.5706 148.042 71.9782 147.876 72.3858C147.796 72.5896 147.715 72.7934 147.63 72.9929C147.613 73.0311 147.817 72.5811 147.728 72.7552C147.571 73.0651 147.401 73.3708 147.248 73.6892C146.488 75.2941 146.008 77.0646 145.329 78.712C144.836 79.905 144.127 81.5311 143.537 82.9492C142.212 86.1335 141.045 89.424 140.166 92.7612C139.211 96.387 138.922 100.136 138.718 103.864C138.523 107.451 138.455 111.043 138.442 114.64C138.429 118.265 138.459 121.896 138.421 125.521C138.387 128.651 138.162 131.78 138.23 134.905C138.383 142.033 137.593 149.141 137.822 156.269C138.047 163.126 138.625 170.238 143.287 175.664C145.414 178.139 148.326 179.808 151.515 180.466C155.175 181.222 158.996 181.277 162.719 181.277C169.937 181.277 177.478 181.459 184.56 179.863C187.986 179.09 190.724 177.158 191.905 173.762C192.979 170.667 192.665 167.028 192.737 163.805C193.072 148.763 193.404 133.716 193.739 118.673C193.803 115.756 193.786 112.822 193.981 109.91C194.074 108.534 192.745 107.362 191.434 107.362C189.977 107.362 188.979 108.53 188.886 109.91C188.691 112.822 188.712 115.756 188.644 118.673C188.563 122.303 188.483 125.933 188.402 129.559C188.241 136.76 188.084 143.961 187.922 151.162C187.842 154.732 187.765 158.303 187.685 161.874C187.646 163.687 187.604 165.504 187.566 167.317C187.549 168.055 187.54 168.794 187.498 169.533C187.476 169.894 187.451 170.255 187.413 170.611C187.413 170.611 187.353 171.044 187.392 170.807C187.43 170.569 187.315 171.202 187.302 171.261C187.23 171.609 187.128 171.94 187.035 172.28C187.035 172.28 186.891 172.679 186.98 172.463C187.077 172.216 186.865 172.7 186.84 172.747C186.793 172.836 186.385 173.49 186.598 173.206C186.496 173.341 186.364 173.477 186.245 173.6C186.199 173.647 185.74 174.038 185.901 173.915C185.536 174.186 185.107 174.386 184.649 174.543C183.961 174.781 183.252 174.942 182.539 175.082C179.303 175.711 175.983 175.914 172.688 176.033C169.135 176.161 165.573 176.19 162.019 176.173C158.648 176.156 155.107 176.173 151.935 175.324C151.201 175.129 150.7 174.959 150.165 174.683C149.889 174.543 149.621 174.39 149.358 174.229C149.248 174.161 149.133 174.089 149.023 174.016C149.031 174.021 148.39 173.566 148.687 173.791C148.203 173.418 147.749 172.985 147.329 172.539C147.087 172.28 146.853 172.017 146.632 171.741C146.671 171.787 146.798 171.966 146.624 171.732C146.492 171.554 146.365 171.376 146.237 171.189C145.864 170.637 145.524 170.064 145.218 169.469C145.074 169.193 144.942 168.913 144.811 168.629C144.594 168.153 144.713 168.399 144.756 168.505C144.675 168.302 144.594 168.094 144.522 167.886C143.966 166.332 143.592 164.706 143.363 163.075C142.454 156.605 142.917 149.684 143.189 143.086C143.321 139.872 143.27 136.675 143.291 133.465C143.312 130.255 143.512 127.033 143.529 123.815C143.567 116.818 143.461 109.825 143.873 102.836C144.072 99.4143 144.471 96.1153 145.443 92.8164C145.919 91.2072 146.45 89.6066 147.01 88.0229C147.273 87.2799 147.554 86.5411 147.842 85.8066C147.97 85.4839 148.101 85.157 148.233 84.8343C148.305 84.6518 148.382 84.4734 148.458 84.2909C148.577 83.9979 148.517 84.1423 148.594 83.9682C149.222 82.4822 149.868 81.0047 150.475 79.5059C150.763 78.7926 151.044 78.0793 151.307 77.3576C151.438 77.0009 151.591 76.6443 151.693 76.2791C151.727 76.1602 151.939 75.6083 151.672 76.2154C151.71 76.1263 151.761 76.0456 151.804 75.9607C153.171 73.2859 154.152 70.3521 155.141 67.5244C157.446 60.9392 159.174 54.1375 159.794 47.1745C160.104 43.6972 159.998 40.2114 159.922 36.7257C159.845 33.2399 159.96 29.7541 160.079 26.2641C160.193 22.8845 160.253 19.4879 159.879 16.121C159.684 14.3505 159.382 12.614 158.979 10.8817C158.826 10.2279 158.682 9.5698 158.571 8.90746C158.563 8.84802 158.52 8.41071 158.554 8.79282C158.537 8.61875 158.52 8.44467 158.512 8.27059C158.495 7.93093 158.495 7.58703 158.525 7.24737C158.486 7.7144 158.635 6.83553 158.673 6.72089C158.529 7.18368 158.903 6.33453 158.779 6.50861C158.627 6.72939 159.314 6.00336 158.958 6.27934C159.094 6.17744 159.242 6.10526 159.382 6.0161L159.607 5.90146C159.425 5.97364 159.416 5.97789 159.586 5.9142C160.202 5.69342 160.847 5.56605 161.492 5.46415C161.552 5.45566 161.993 5.40046 161.599 5.45141C161.739 5.43443 161.879 5.41745 162.019 5.40046C162.511 5.34102 163.004 5.28583 163.496 5.23488C164.987 5.08628 166.672 4.96315 168.073 5.15846C168.778 5.25611 169.487 5.45566 170.15 5.7189C169.84 5.59577 170.51 5.90146 170.604 5.95666C170.718 6.02034 170.829 6.08403 170.939 6.14772C170.939 6.14772 171.593 6.58503 171.262 6.33453C171.495 6.51285 171.712 6.72089 171.916 6.93318C172.005 7.02234 172.09 7.11575 172.171 7.2134C171.933 6.93318 172.188 7.24312 172.226 7.29832C172.587 7.89272 172.782 8.32154 172.867 9.08153C172.99 10.2152 172.71 11.7733 172.485 13.1065C171.886 16.6772 171.759 20.2479 171.869 23.8653C172.086 30.9981 172.451 38.131 172.744 45.2639L172.969 50.6772C173.015 51.7769 172.969 52.8893 173.02 53.9847C173.058 54.7829 173.368 55.5598 173.601 56.3198C173.865 57.169 174.136 58.0139 174.408 58.8588C174.93 60.4594 175.469 62.0559 176.013 63.6523C177.104 66.8748 178.14 70.1143 179.142 73.3665C179.656 75.0224 180.348 76.5678 181.303 78.0157C182.144 79.2979 182.984 80.5546 183.634 81.9472C184.836 84.5159 185.553 87.7427 186.211 90.6638C186.954 93.967 187.761 97.2574 188.504 100.561C189.154 103.435 189.548 106.309 188.979 109.235C188.716 110.585 189.362 111.986 190.758 112.368C192.007 112.712 193.629 111.948 193.892 110.589H193.896Z" fill="#801424"/>
<path d="M103.181 2.73955C99.2536 2.55274 95.9547 2.90938 92.0273 2.72257C90.9999 6.38241 91.1739 10.2588 91.3523 14.0545C91.8023 23.5098 92.2524 32.9609 92.7024 42.4162C92.7831 44.1357 92.8468 45.9486 92.0571 47.4813C90.656 50.2029 87.2211 51.0011 84.6822 52.7079C78.7848 56.6777 78.2796 65.0121 78.3815 72.1195C78.4961 80.3223 78.6107 88.5251 78.7254 96.7279C78.7976 101.937 78.8697 107.147 78.9419 112.357C79.2009 130.736 79.4556 149.121 79.7146 167.5C79.7571 170.409 80.0968 173.852 82.6357 175.274C83.867 175.966 85.3488 175.988 86.7626 175.992C94.5705 176.013 102.378 176.039 110.191 176.06C112.781 176.068 115.816 175.848 117.23 173.678C117.969 172.544 118.071 171.126 118.13 169.776C118.856 153.213 116.61 136.638 117.052 120.063C117.243 112.947 117.926 105.852 118.334 98.7446C118.903 88.8902 118.937 79.0103 118.444 69.1517C118.258 65.373 117.922 61.3989 115.795 58.2698C113.935 55.5356 110.921 53.7863 108.908 51.1624C105.66 46.9336 105.486 41.1764 105.452 35.8437C105.393 26.6559 105.334 17.4681 105.274 8.28027C105.261 6.31873 105.979 4.39115 104.446 3.16413L103.172 2.73955H103.181Z" fill="#801424"/>
<path d="M103.181 2.10331C99.4622 1.94197 95.7472 2.24766 92.0279 2.08632C91.7519 2.07359 91.4844 2.29437 91.4123 2.55336C90.5376 5.77589 90.5079 9.11305 90.6438 12.4247C90.7839 15.9657 90.9792 19.5067 91.1448 23.0476C91.3104 26.5886 91.4844 30.1975 91.6543 33.7682C91.8156 37.169 92.1298 40.6038 92.1128 44.0089C92.1043 45.5204 91.8453 47.0277 90.8051 48.1868C89.9602 49.1293 88.8308 49.7534 87.7185 50.3309C85.5064 51.4772 83.3708 52.5556 81.7617 54.5257C78.6665 58.3171 77.9532 63.4672 77.7791 68.2055C77.6645 71.2412 77.7791 74.2897 77.8173 77.3254C77.8683 80.9088 77.9192 84.488 77.9659 88.0714C78.0636 95.1491 78.1655 102.227 78.2631 109.309C78.4627 123.481 78.658 137.653 78.8576 151.83C78.9085 155.333 78.9552 158.84 79.0062 162.342C79.0486 165.268 78.8406 168.329 79.4053 171.22C79.8596 173.53 81.1121 175.649 83.4982 176.324C84.9375 176.731 86.4872 176.638 87.9689 176.646C89.7479 176.651 91.5269 176.655 93.3101 176.663C96.8681 176.672 100.43 176.685 103.988 176.693C107.041 176.702 110.229 176.978 113.261 176.523C115.685 176.158 117.817 174.923 118.453 172.413C118.84 170.906 118.793 169.276 118.84 167.73C118.891 165.96 118.912 164.189 118.908 162.419C118.882 148.293 117.307 134.206 117.685 120.076C117.876 112.956 118.56 105.865 118.967 98.758C119.375 91.6506 119.511 84.5347 119.366 77.423C119.298 74.0562 119.213 70.6723 118.967 67.3139C118.759 64.482 118.335 61.5906 116.993 59.0474C115.651 56.5042 113.371 54.7762 111.321 52.8443C109.27 50.9125 107.737 48.4925 106.99 45.6435C106.243 42.7946 106.132 39.8736 106.098 36.9695C106.056 33.5007 106.052 30.0277 106.026 26.5589C105.984 19.6977 105.754 12.8069 106.056 5.95421C106.103 4.88428 105.941 3.79736 105.177 2.99492C104.693 2.48543 103.992 2.3623 103.343 2.14576C102.562 1.88677 102.23 3.1138 103.003 3.37279C103.835 3.64876 104.332 3.66575 104.642 4.49791C105.075 5.64427 104.642 7.10481 104.634 8.29787C104.608 11.7412 104.676 15.1887 104.701 18.632C104.744 25.2979 104.651 31.9807 104.859 38.6465C104.943 41.3723 105.177 44.149 105.988 46.7687C106.799 49.3883 108.234 51.6513 110.221 53.5576C112.208 55.464 114.56 57.1708 115.893 59.6928C117.226 62.2147 117.579 65.2929 117.749 68.1715C118.568 81.8896 117.931 95.5567 116.98 109.245C116.505 116.115 116.254 122.967 116.416 129.854C116.577 136.741 117.018 143.682 117.324 150.599C117.473 154.025 117.592 157.451 117.626 160.882C117.66 164.312 117.744 167.637 117.413 170.961C117.269 172.422 116.747 173.764 115.426 174.523C114.361 175.139 113.083 175.326 111.873 175.402C108.688 175.602 105.449 175.432 102.26 175.424C98.8169 175.415 95.3693 175.402 91.926 175.394C90.2022 175.39 88.4827 175.39 86.7589 175.377C85.3366 175.368 83.7741 175.377 82.5726 174.507C80.6153 173.084 80.42 170.193 80.3606 167.985C80.2714 164.614 80.2629 161.243 80.2162 157.872C80.0251 144.086 79.8298 130.3 79.6388 116.514C79.4477 102.707 79.2524 88.8951 79.0614 75.0879C78.9892 69.9335 78.7259 64.5499 80.437 59.5993C81.2055 57.3788 82.4495 55.3111 84.2836 53.8124C86.1178 52.3136 88.6653 51.5664 90.631 50.0676C92.8049 48.416 93.4417 46.0936 93.378 43.4442C93.2974 40.0519 93.0639 36.6553 92.9025 33.2672C92.5756 26.3805 92.2062 19.4939 91.9217 12.6031C91.7859 9.34657 91.7816 6.07309 92.6393 2.90576L92.0236 3.37279C95.7429 3.53413 99.458 3.22843 103.177 3.38977C103.997 3.42374 103.997 2.15001 103.177 2.11604L103.181 2.10331Z" fill="#801424"/>
</svg>
