<svg width="322" height="324" viewBox="0 0 322 324" fill="none" xmlns="http://www.w3.org/2000/svg">
<path d="M283.586 73.5779C268.406 75.8151 258.22 84.8419 245.482 93.4104C242.188 95.6241 238.896 97.8449 235.595 100.061C226.023 106.497 216.281 113.109 209.337 122.592C206.977 125.815 204.961 129.345 202.286 132.276C200.309 134.437 198.014 136.235 195.732 138.028C181.454 149.189 169.629 160.185 155.352 171.347L152.55 172.264C130.343 181.744 108.137 191.223 85.9236 200.705C75.5628 205.126 65.1287 209.574 54.0636 211.778C46.8169 213.222 38.7869 213.979 33.7146 219.487C29.2367 224.353 28.2217 232.001 29.489 238.927C30.7564 245.853 34.0009 252.278 37.1991 258.558C39.4808 263.049 42.1056 267.886 46.4985 269.907C53.4418 273.111 60.573 267.843 66.6661 263.675C82.9459 252.542 102.546 248.054 120.951 241.196C131.674 237.195 142.093 232.342 153.061 229.071C178.46 221.492 206.524 220.596 233.304 221.922L236.413 222.348C251.41 222.072 261.285 223.956 276.282 223.681C282.818 223.558 289.363 223.441 295.804 222.541C304.533 221.32 312.961 218.69 321.346 216.068C346.166 208.304 371.224 197.253 396.051 189.486L397.669 188.877C417.481 180.588 436.172 176.394 455.987 168.112C466.253 163.824 476.673 159.438 485.248 152.209C493.823 144.981 500.47 134.385 500.696 122.459C500.798 117.233 499.677 112.008 498.303 106.902C495.473 96.4065 491.542 86.237 487.619 76.0887C481.754 60.9192 475.848 45.6605 467.743 31.6073C464.863 26.6168 461.441 21.5401 456.448 19.1164C449.825 15.9125 442.371 18.2004 435.701 20.5318C385.914 37.9354 336.121 55.3415 286.335 72.7452L283.58 73.5638L283.586 73.5779Z" fill="#801424"/>
<path d="M283.108 69.0931C273.522 70.6038 265.049 74.6685 256.989 79.9717C248.904 85.2919 241.03 90.9681 233 96.3725C225.256 101.589 217.589 106.905 211.022 113.693C207.787 117.036 205.187 120.793 202.538 124.641C199.889 128.489 196.788 131.459 193.136 134.339C185.452 140.379 178.001 146.717 170.545 153.042C166.84 156.183 163.123 159.313 159.362 162.387C157.547 163.867 155.752 165.38 153.886 166.783C153.353 167.184 152.313 167.551 151.262 167.93C142.127 171.245 133.257 175.588 124.318 179.402C114.842 183.449 105.367 187.496 95.8892 191.536C86.5778 195.513 77.322 199.719 67.7929 203.158C63.1615 204.827 58.4318 206.316 53.6015 207.295C48.7713 208.274 44.2955 208.821 39.8745 210.404C31.4587 213.408 25.8508 220.463 24.8819 229.809C23.8632 239.568 27.5757 248.854 31.896 257.491C35.6863 265.063 40.1231 274.213 49.2265 275.26C57.7284 276.243 64.5449 270.361 71.2158 266.071C88.0543 255.252 108.126 251.11 126.55 243.899C136.01 240.196 145.325 236.064 155.086 233.182C164.847 230.301 173.87 228.687 183.479 227.562C193.088 226.438 203.153 225.939 213.048 225.898C220.919 225.87 228.78 226.321 236.325 226.802C241.006 227.104 245.719 226.862 250.417 227.109C254.682 227.333 258.954 227.66 263.218 227.884C272.836 228.4 282.575 228.386 292.119 227.495C302.23 226.552 311.958 223.723 321.581 220.716C331.204 217.709 340.414 214.43 349.722 210.97C359.03 207.509 368.176 203.981 377.442 200.609C385.566 197.658 393.896 195.234 401.91 192.01C420.183 184.662 439.388 179.912 457.577 172.338C474.211 165.422 491.471 157.44 500.407 140.361C504.461 132.609 505.833 123.668 504.403 114.773C502.723 104.304 498.974 94.034 495.261 84.1208C487.922 64.5274 480.719 43.9003 469.461 26.1918C464.416 18.2538 457.41 12.8415 448.168 13.0631C439.265 13.2778 430.43 17.5916 422.2 20.4616C383.099 34.1281 343.999 47.7945 304.909 61.4655C297.292 64.1289 289.727 67.0305 281.99 69.336C276.722 70.9068 279.927 79.3678 285.175 77.8045C292.908 75.5086 300.477 72.5973 308.094 69.934C317.411 66.6795 326.726 63.4179 336.043 60.1634C354.831 53.5967 373.612 47.0326 392.399 40.4659C401.87 37.1538 411.333 33.8442 420.806 30.5391C425.387 28.9372 429.968 27.3351 434.549 25.7332C438.236 24.443 441.953 22.9485 445.836 22.3418C449.317 21.7977 452.99 21.8423 456.134 23.9382C459.279 26.0342 461.685 29.7448 463.69 33.1151C468.766 41.6617 472.865 50.8015 476.66 59.983C480.455 69.1645 484.386 79.2936 487.981 89.0338C491.384 98.2421 495.064 107.926 496.163 117.719C498.122 135.195 485.638 148.155 472.228 155.663C455.944 164.784 437.694 170.174 420.059 175.945C411.614 178.71 403.4 181.969 395.064 185.023C386.724 188.087 378.2 190.681 369.858 193.762C351.87 200.415 334.039 207.443 315.697 213.093C306.597 215.895 297.498 218.174 287.927 218.793C278.356 219.412 269.484 219.366 260.254 218.81C256.117 218.561 251.975 218.258 247.834 218.059C244.066 217.882 239.848 218.123 236.382 217.839C228.286 217.187 220.205 216.899 212.099 216.927C193.103 216.999 174.104 218.74 155.816 223.604C146.345 226.127 137.305 229.817 128.232 233.479C119.16 237.141 110.262 240.157 101.158 243.21C92.1535 246.226 83.1572 249.384 74.6932 253.736C70.4899 255.897 66.4739 258.333 62.5641 261.012C59.6148 263.032 56.5002 265.299 52.9759 266.133C45.384 267.933 41.8301 258.483 39.0213 252.733C35.3853 245.288 31.7505 236.675 33.8803 228.374C36.0997 219.726 44.5619 218.098 51.9936 216.72C61.5914 214.939 70.7167 211.902 79.715 208.203C97.946 200.702 116.007 192.749 134.141 185.011C141.614 181.822 149.102 178.675 156.638 175.656C158.369 174.964 159.815 173.534 161.268 172.367C163.195 170.821 165.116 169.261 167.023 167.682C170.635 164.696 174.208 161.669 177.779 158.634C184.996 152.504 192.281 146.494 199.682 140.609C203.146 137.856 206.238 134.801 208.815 131.125C211.392 127.449 213.839 123.709 216.895 120.417C222.876 113.971 230.266 109.049 237.46 104.209C245.251 98.9583 252.927 93.542 260.712 88.2942C267.865 83.4692 275.438 79.3965 284.04 78.0383C289.45 77.1875 288.537 68.2111 283.093 69.0744L283.108 69.0931Z" fill="#801424"/>
<path d="M305.453 73.3998C297.836 74.7903 289.79 76.8981 285.772 84.3621C282.013 91.342 284.301 100.132 286.683 107.396C292.134 124.01 301.455 138.951 307.827 155.187C309.426 159.257 310.828 163.41 311.927 167.645C312.053 168.121 312.169 168.593 312.289 169.071C312.347 169.307 312.405 169.543 312.466 169.786C312.752 170.951 312.317 169.125 312.486 169.859C312.746 170.994 313.012 172.126 313.285 173.256C313.857 175.667 314.439 178.082 315.179 180.454C317.525 187.925 322.081 195.572 329.301 198.825C333.199 200.581 337.335 200.685 341.362 199.855C345.593 198.981 349.755 197.802 353.845 196.409C361.705 193.727 369.262 190.256 376.712 186.584C384.162 182.912 391.489 179.053 398.985 175.525C406.493 171.984 414.154 168.934 422.097 166.51C429.884 164.138 437.628 161.37 443.225 155.052C445.784 152.156 447.582 148.572 448.398 144.68C449.215 140.789 448.722 136.447 447.596 132.464C446.471 128.481 444.604 124.914 442.7 121.345C441.803 119.668 440.873 118.004 439.957 116.335C439.549 115.594 438.972 114.788 438.685 113.986C439.065 115.035 438.906 114.41 438.748 114.091C438.656 113.908 438.558 113.727 438.466 113.544C438.182 112.991 437.911 112.432 437.64 111.873C434.016 104.279 431.817 96.1081 429.839 87.959C427.861 79.8099 426.026 71.2929 423.123 63.2501C420.532 56.0803 417.096 48.3588 411.185 43.4127C408.115 40.846 404.552 39.3747 400.69 39.3126C398.502 39.2737 396.3 39.9248 394.266 40.6412C392.233 41.3576 390.351 42.0734 388.393 42.7859C380.339 45.7424 372.278 48.7015 364.222 51.6509C348.052 57.5795 331.885 63.5151 315.715 69.4436C311.829 70.8728 307.934 72.2975 304.048 73.7267C301.952 74.4989 300.698 77.2261 301.646 79.4634C302.673 81.8722 304.922 82.839 307.233 82.1952L307.543 82.1107C309.703 81.5079 310.849 78.4913 309.946 76.3739C308.918 73.9652 306.67 72.9984 304.358 73.6422L304.048 73.7267L307.233 82.1952C322.848 76.4674 338.463 70.7397 354.071 65.0144C361.851 62.1606 369.626 59.3092 377.406 56.4554C381.355 55.0107 385.294 53.5615 389.242 52.1168C391.131 51.4222 393.021 50.7276 394.913 50.0401C395.808 49.7116 396.698 49.369 397.607 49.0592C398.065 48.903 398.517 48.7493 398.983 48.6143C399.188 48.5533 399.395 48.4994 399.603 48.4454C400.471 48.2075 398.761 48.5287 399.734 48.4286C400.157 48.3821 400.572 48.3145 401.004 48.2892C401.221 48.2801 401.434 48.2806 401.647 48.281C402.339 48.2623 401.331 48.2708 401.255 48.251C401.593 48.3413 401.978 48.3336 402.317 48.4074C402.657 48.4811 403.021 48.6421 403.354 48.678C402.432 48.5899 402.665 48.4217 403.082 48.6029C403.229 48.6687 403.379 48.7249 403.526 48.7907C403.855 48.9405 404.181 49.0998 404.499 49.2783C404.642 49.3537 404.783 49.4456 404.918 49.5235C405.236 49.702 405.275 49.9453 404.591 49.3002C404.888 49.5834 405.277 49.7912 405.599 50.0407C406.133 50.4685 406.638 50.9228 407.124 51.4084C407.247 51.5316 407.362 51.6572 407.491 51.7779C408.146 52.426 406.925 51.1209 407.332 51.5962C407.591 51.9015 407.854 52.1972 408.1 52.5075C409.109 53.7552 410.01 55.0999 410.823 56.4938C410.998 56.7984 411.17 57.1126 411.348 57.4242C411.726 58.0874 411.183 57.1076 411.155 57.0536C411.24 57.2391 411.345 57.4172 411.437 57.6002C411.938 58.5879 412.412 59.5857 412.859 60.5935C413.686 62.4493 414.443 64.3397 415.133 66.2551C416.518 70.1001 417.652 74.0236 418.68 77.9706C420.746 85.9093 422.374 93.9564 424.734 101.825C425.904 105.727 427.254 109.577 428.917 113.293C430.581 117.009 432.598 120.553 434.558 124.109C435.009 124.922 435.567 125.759 435.92 126.617C435.88 126.511 435.42 125.653 435.794 126.383C435.888 126.573 435.986 126.753 436.081 126.943C436.317 127.41 436.553 127.877 436.783 128.347C437.549 129.919 438.265 131.519 438.861 133.164C439.173 134.013 439.449 134.868 439.685 135.738C439.734 135.929 439.772 136.132 439.832 136.311C439.797 136.219 439.601 135.213 439.751 135.995C439.841 136.476 439.937 136.956 440.011 137.435C440.126 138.206 440.199 138.984 440.232 139.761C440.241 140.007 440.241 140.249 440.247 140.488C440.26 141.087 440.303 139.605 440.248 140.206C440.205 140.698 440.182 141.181 440.116 141.673C440.065 142.063 440 142.458 439.924 142.841C439.88 143.067 439.822 143.298 439.771 143.527C439.632 144.167 439.712 143.267 439.856 143.245C439.777 143.259 439.548 144.166 439.506 144.295C439.348 144.725 439.165 145.148 438.971 145.56C438.814 145.892 438.646 146.213 438.478 146.534C438.141 147.193 438.568 146.348 438.632 146.275C438.528 146.403 438.438 146.59 438.342 146.739C437.873 147.471 437.358 148.164 436.805 148.815C436.544 149.131 436.271 149.435 435.988 149.734C435.862 149.863 435.719 149.989 435.611 150.126C435.668 150.056 436.365 149.424 435.819 149.911C435.213 150.461 434.601 150.997 433.954 151.499C433.347 151.968 432.715 152.408 432.065 152.821C431.765 153.014 431.456 153.203 431.144 153.385C430.938 153.503 430.386 153.855 431.191 153.367C430.943 153.517 430.678 153.641 430.422 153.769C426.814 155.593 422.938 156.785 419.079 157.963C415.221 159.14 411.34 160.422 407.56 161.909C400.125 164.834 392.933 168.344 385.793 171.932C371.577 179.075 357.377 186.663 341.842 190.524C341.411 190.63 340.97 190.731 340.539 190.837C339.515 191.085 341.241 190.702 340.572 190.824C340.366 190.862 340.156 190.909 339.952 190.953C339.017 191.135 338.073 191.273 337.121 191.349C336.648 191.382 336.172 191.392 335.695 191.394C335.43 191.397 334.984 191.525 335.857 191.422C335.681 191.439 335.383 191.374 335.223 191.354C334.84 191.305 334.458 191.239 334.084 191.154C333.917 191.112 333.751 191.078 333.581 191.029C333.414 190.987 333.25 190.936 333.086 190.885L333.654 191.082C333.008 190.737 332.305 190.526 331.656 190.174C331.502 190.087 331.357 190.005 331.202 189.918C330.741 189.64 330.905 189.45 331.379 190.045C331.172 189.776 330.693 189.554 330.423 189.341C329.829 188.872 329.257 188.362 328.717 187.816C328.592 187.686 328.467 187.555 328.335 187.428C327.796 186.882 328.543 187.615 328.567 187.679C328.475 187.375 327.895 186.884 327.688 186.616C327.203 185.993 326.748 185.35 326.325 184.688C326.101 184.337 325.882 183.976 325.672 183.62C325.582 183.461 325.489 183.295 325.399 183.135C324.964 182.364 325.857 184.091 325.446 183.222C324.606 181.452 323.874 179.649 323.28 177.786C322.939 176.738 322.641 175.682 322.356 174.621C322.23 174.145 322.107 173.676 321.988 173.197C321.929 172.961 321.868 172.718 321.81 172.482C321.772 172.32 321.471 171.096 321.746 172.232C321.194 169.935 320.682 167.623 320.102 165.335C315.953 148.868 307.274 134.137 300.363 118.772C298.641 114.941 297.023 111.063 295.611 107.107C294.915 105.154 294.265 103.183 293.69 101.192C293.572 100.777 293.454 100.363 293.346 99.9523C293.303 99.7991 293.003 98.4944 293.168 99.278C293.334 100.062 293.138 99.1364 293.118 99.023C293.078 98.8366 293.036 98.6431 292.996 98.4566C292.902 97.9845 292.815 97.5098 292.734 97.0327C292.611 96.2815 292.515 95.5202 292.457 94.7605C292.43 94.3842 292.409 94.0054 292.397 93.6312C292.393 93.399 292.39 93.1668 292.386 92.9346C292.373 92.3755 292.334 93.9287 292.39 93.1265C292.445 92.3243 292.526 91.4883 292.695 90.6838C292.727 90.5267 292.806 90.3118 292.815 90.1552C292.811 90.2454 292.488 91.1644 292.728 90.4698C292.872 90.045 293.017 89.6202 293.196 89.2066C293.338 88.879 293.554 88.5642 293.678 88.2275C293.379 89.0488 293.354 88.7602 293.545 88.479C293.648 88.3276 293.744 88.1788 293.853 88.0249C294.086 87.6955 294.341 87.3822 294.608 87.0806C294.725 86.9479 294.851 86.8197 294.969 86.687C295.323 86.2959 294.247 87.313 294.847 86.8293C295.448 86.3455 296.081 85.8255 296.762 85.3923C296.915 85.2944 297.064 85.2061 297.22 85.1153C297.641 84.8603 297.473 85.2216 296.923 85.2753C297.297 85.2393 297.787 84.8455 298.146 84.6866C299.585 84.0485 301.093 83.5702 302.62 83.165C302.979 83.07 303.348 82.9797 303.71 82.8918C303.961 82.8299 304.53 82.7283 303.415 82.9546C303.598 82.9177 303.78 82.8738 303.963 82.8369C304.774 82.6689 305.59 82.515 306.406 82.3611C307.566 82.1505 308.573 81.7558 309.323 80.7808C309.955 79.9551 310.368 78.6479 310.208 77.5561C309.875 75.3372 307.812 72.9636 305.459 73.3973L305.453 73.3998Z" fill="#801424"/>
</svg>
